; Drill file
; Format: 2.4 (00.0000)
M48
INCH
T01C0.0079
T02C0.0157
T03C0.0197
T04C0.0236
T05C0.0354
T06C0.0374
T07C0.0394
%
G05
G90
T01
X005590Y025710
X006730Y026970
X009450Y029610
X009850Y030910
X008850Y030910
X007850Y030910
X006260Y030870
X010850Y030910
X011850Y030910
X012850Y030910
X013850Y030910
X014850Y030910
X015850Y030910
X016850Y030910
X017850Y030910
X018850Y030910
X016740Y029610
X016700Y041650
X016810Y042950
X015810Y042950
X014810Y042950
X013810Y042950
X012810Y042950
X011810Y042950
X010810Y042950
X009810Y042950
X008810Y042950
X007810Y042950
X006220Y042910
X009410Y041650
X006690Y039020
X005550Y037760
X017810Y042950
X018810Y042950
X017480Y051100
X016850Y051140
X025940Y047480
X027760Y048900
X027440Y049450
X027130Y049800
X027950Y050160
X027950Y051850
X031310Y052830
X032310Y052830
X033310Y052830
X034310Y052830
X035310Y052830
X036310Y052830
X037310Y052830
X038310Y052830
X039310Y052830
X040310Y052830
X041310Y052830
X042310Y052830
X042310Y047010
X041310Y047010
X040310Y047010
X039310Y047010
X038310Y047010
X037310Y047010
X036310Y047010
X035310Y047010
X034310Y047010
X033310Y047010
X032310Y047010
X031310Y047010
X032280Y042560
X032280Y039920
X032320Y030510
X032320Y027870
X042010Y025550
X042010Y024450
X041970Y036500
X041970Y037600
X047580Y048830
X049580Y048830
X054310Y049670
X054310Y051280
X054310Y052890
X054310Y054550
X055710Y034490
X055750Y022440
T02
X021610Y054450
X020240Y055790
T03
X056000Y031840
X055960Y043880
T04
X007850Y031940
X008850Y031940
X009850Y031940
X010850Y031940
X011850Y031940
X012850Y031940
X013850Y031940
X014850Y031940
X015850Y031940
X016850Y031940
X017850Y031940
X018850Y031940
X018810Y044020
X017810Y044020
X016810Y044020
X015810Y044020
X014810Y044020
X013810Y044020
X012810Y044020
X011810Y044020
X010810Y044020
X009810Y044020
X008810Y044020
X007810Y044020
X031310Y045990
X032310Y045990
X033310Y045990
X034310Y045990
X035310Y045990
X036310Y045990
X037310Y045990
X038310Y045990
X039310Y045990
X040310Y045990
X041310Y045990
X042310Y045990
X042310Y053830
X041310Y053830
X040310Y053830
X039310Y053830
X038310Y053830
X037310Y053830
X036310Y053830
X035310Y053830
X034310Y053830
X033310Y053830
X032310Y053830
X031310Y053830
T05
X047680Y050700
X048670Y050700
X049650Y050700
X049650Y056410
X047680Y056410
T06
X006800Y049720
X007800Y049720
X008800Y049720
X009800Y049720
X010800Y049720
X011800Y049720
X012800Y049720
X013800Y049720
X014800Y049720
X015800Y049720
X016800Y049720
X017800Y049720
X017800Y057600
X016800Y057600
X015800Y057600
X014800Y057600
X013800Y057600
X012800Y057600
X011800Y057600
X010800Y057600
X009800Y057600
X008800Y057600
X007800Y057600
X006800Y057600
X005800Y057600
X004800Y057600
X003800Y057600
X002800Y057600
T07
X002710Y023910
X002710Y025390
X002710Y028360
X002670Y035950
X002670Y037440
X002670Y040410
X052860Y040420
X052860Y038940
X052900Y028370
X052900Y026890
M30
