%FSLAX34Y34*%
%MOMM*%
%LNOUTLINE*%
G71*
G01*
%ADD10R,1.500X1.500*%
%ADD11R,1.500X2.600*%
%ADD12C,0.200*%
%ADD13C,0.300*%
%ADD14R,1.500X1.550*%
%ADD15R,1.000X1.550*%
%ADD16C,0.150*%
%ADD17C,0.400*%
%ADD18R,0.650X3.000*%
%ADD19R,0.650X2.900*%
%LPD*%
X1296100Y1362700D02*
G54D10*
D03*
X1176100Y1362700D02*
G54D11*
D03*
X1176100Y1362700D02*
G54D11*
D03*
X1296100Y1362700D02*
G54D11*
D03*
G54D12*
X1133100Y1460700D02*
X1410100Y1461700D01*
X1410100Y1209700D01*
X1133100Y1207700D01*
X1133100Y1460700D01*
G54D13*
X502800Y1147100D02*
X1501400Y1147500D01*
X1502400Y1146500D01*
G54D13*
X1502400Y864500D02*
X3400Y862500D01*
X1300Y862600D01*
X1600Y1117100D01*
X312643Y970513D02*
G54D14*
D03*
X1147643Y970513D02*
G54D15*
D03*
X1147643Y970513D02*
G54D14*
D03*
G54D16*
X1600Y1117100D02*
X501200Y1117100D01*
X502400Y1118300D01*
X502400Y1146700D01*
X502800Y1147100D01*
G54D17*
X1502400Y1146500D02*
X1502400Y864500D01*
G54D13*
X502800Y841100D02*
X1501400Y841500D01*
X1502400Y840500D01*
G54D13*
X1502400Y558500D02*
X3400Y556500D01*
X1300Y556600D01*
X1600Y811100D01*
G54D16*
X1600Y811100D02*
X501200Y811100D01*
X502400Y812300D01*
X502400Y840700D01*
X502800Y841100D01*
G54D17*
X1502400Y840500D02*
X1502400Y558500D01*
X313643Y664513D02*
G54D14*
D03*
X1148643Y664513D02*
G54D15*
D03*
X1148643Y664513D02*
G54D14*
D03*
G54D12*
X502400Y1118300D02*
X502400Y1146700D01*
G54D12*
X1099400Y1168300D02*
X1000Y1168300D01*
X1000Y1499000D01*
X584000Y1498000D01*
G54D12*
X1099400Y1168300D02*
X1099400Y1359400D01*
X1099000Y1368000D01*
X723000Y1368000D01*
X584000Y1498000D01*
X376000Y1393000D02*
G54D18*
D03*
X376000Y1333000D02*
G54D18*
D03*
X376000Y1333000D02*
G54D18*
D03*
X406000Y1333000D02*
G54D18*
D03*
X406000Y1333000D02*
G54D18*
D03*
X406000Y1393000D02*
G54D18*
D03*
X376000Y1393000D02*
G54D18*
D03*
X346000Y1393000D02*
G54D18*
D03*
X346000Y1393000D02*
G54D18*
D03*
X346000Y1333000D02*
G54D18*
D03*
X331000Y1363000D02*
G54D19*
D03*
X421000Y1363000D02*
G54D19*
D03*
G54D12*
X1099400Y1168300D02*
X1099400Y1359400D01*
M02*
