%FSLAX34Y34*%
%MOMM*%
%LNSOLDERMASK_BOTTOM*%
G71*
G01*
%ADD10C,2.850*%
%ADD11C,2.750*%
%ADD12C,3.450*%
%ADD13C,2.000*%
%ADD14C,1.300*%
%ADD15R,1.750X5.200*%
%ADD16C,1.850*%
%ADD17C,1.350*%
%ADD18R,5.200X3.250*%
%ADD19C,2.550*%
%ADD20R,1.200X5.200*%
%ADD21R,1.700X3.600*%
%ADD22C,1.600*%
%LPD*%
X1211100Y1287700D02*
G54D10*
D03*
X1261100Y1287700D02*
G54D10*
D03*
X1236100Y1287700D02*
G54D10*
D03*
X1211100Y1432700D02*
G54D10*
D03*
X1261100Y1432700D02*
G54D10*
D03*
X67800Y913200D02*
G54D11*
D03*
X67800Y950900D02*
G54D11*
D03*
X67800Y1026300D02*
G54D12*
D03*
X1342700Y989000D02*
G54D12*
D03*
X1342700Y1026700D02*
G54D12*
D03*
X1421503Y1114674D02*
G54D13*
D03*
X1066000Y927000D02*
G54D14*
D03*
X1066000Y955000D02*
G54D14*
D03*
X158000Y1090000D02*
G54D14*
D03*
X141000Y959000D02*
G54D14*
D03*
X170000Y991000D02*
G54D14*
D03*
X477700Y1091000D02*
G54D15*
D03*
X452300Y1091000D02*
G54D15*
D03*
X426900Y1091000D02*
G54D15*
D03*
X401500Y1091000D02*
G54D15*
D03*
X376100Y1091000D02*
G54D15*
D03*
X350700Y1091000D02*
G54D15*
D03*
X325300Y1091000D02*
G54D15*
D03*
X299900Y1091000D02*
G54D15*
D03*
X274500Y1091000D02*
G54D15*
D03*
X249100Y1091000D02*
G54D15*
D03*
X223700Y1091000D02*
G54D15*
D03*
X198300Y1091000D02*
G54D15*
D03*
X239000Y1058000D02*
G54D14*
D03*
X424200Y1058000D02*
G54D14*
D03*
X223700Y1091000D02*
G54D14*
D03*
X249100Y1091000D02*
G54D14*
D03*
X274500Y1091000D02*
G54D14*
D03*
X299900Y1091000D02*
G54D14*
D03*
X325300Y1091000D02*
G54D14*
D03*
X350700Y1091000D02*
G54D14*
D03*
X376100Y1091000D02*
G54D14*
D03*
X401500Y1091000D02*
G54D14*
D03*
X426900Y1091000D02*
G54D14*
D03*
X452300Y1091000D02*
G54D14*
D03*
X477700Y1091000D02*
G54D14*
D03*
X198300Y1091000D02*
G54D14*
D03*
X198400Y1118200D02*
G54D16*
D03*
X223800Y1118200D02*
G54D16*
D03*
X249200Y1118200D02*
G54D16*
D03*
X274600Y1118200D02*
G54D16*
D03*
X300000Y1118200D02*
G54D16*
D03*
X325400Y1118200D02*
G54D16*
D03*
X350800Y1118200D02*
G54D16*
D03*
X376200Y1118200D02*
G54D16*
D03*
X401600Y1118200D02*
G54D16*
D03*
X427000Y1118200D02*
G54D16*
D03*
X452400Y1118200D02*
G54D16*
D03*
X477800Y1118200D02*
G54D16*
D03*
X1379400Y1385500D02*
G54D17*
D03*
X1259300Y1240300D02*
G54D17*
D03*
X1208500Y1240300D02*
G54D17*
D03*
X820000Y1081000D02*
G54D17*
D03*
X820000Y1014000D02*
G54D17*
D03*
X1415000Y876000D02*
G54D17*
D03*
X68800Y607200D02*
G54D11*
D03*
X68800Y644900D02*
G54D11*
D03*
X68800Y720300D02*
G54D12*
D03*
X1343700Y683000D02*
G54D12*
D03*
X1343700Y720700D02*
G54D12*
D03*
X1422503Y808674D02*
G54D13*
D03*
X1067000Y621000D02*
G54D14*
D03*
X1067000Y649000D02*
G54D14*
D03*
X159000Y784000D02*
G54D14*
D03*
X142000Y653000D02*
G54D14*
D03*
X171000Y685000D02*
G54D14*
D03*
X478700Y785000D02*
G54D15*
D03*
X453300Y785000D02*
G54D15*
D03*
X427900Y785000D02*
G54D15*
D03*
X402500Y785000D02*
G54D15*
D03*
X377100Y785000D02*
G54D15*
D03*
X351700Y785000D02*
G54D15*
D03*
X326300Y785000D02*
G54D15*
D03*
X300900Y785000D02*
G54D15*
D03*
X275500Y785000D02*
G54D15*
D03*
X250100Y785000D02*
G54D15*
D03*
X224700Y785000D02*
G54D15*
D03*
X199300Y785000D02*
G54D15*
D03*
X240000Y752000D02*
G54D14*
D03*
X425200Y752000D02*
G54D14*
D03*
X224700Y785000D02*
G54D14*
D03*
X250100Y785000D02*
G54D14*
D03*
X275500Y785000D02*
G54D14*
D03*
X300900Y785000D02*
G54D14*
D03*
X326300Y785000D02*
G54D14*
D03*
X351700Y785000D02*
G54D14*
D03*
X377100Y785000D02*
G54D14*
D03*
X402500Y785000D02*
G54D14*
D03*
X427900Y785000D02*
G54D14*
D03*
X453300Y785000D02*
G54D14*
D03*
X478700Y785000D02*
G54D14*
D03*
X199300Y785000D02*
G54D14*
D03*
X821000Y775000D02*
G54D17*
D03*
X821000Y708000D02*
G54D17*
D03*
X1416000Y570000D02*
G54D17*
D03*
X199400Y811200D02*
G54D16*
D03*
X224800Y811200D02*
G54D16*
D03*
X250200Y811200D02*
G54D16*
D03*
X275600Y811200D02*
G54D16*
D03*
X301000Y811200D02*
G54D16*
D03*
X326400Y811200D02*
G54D16*
D03*
X351800Y811200D02*
G54D16*
D03*
X377200Y811200D02*
G54D16*
D03*
X402600Y811200D02*
G54D16*
D03*
X428000Y811200D02*
G54D16*
D03*
X453400Y811200D02*
G54D16*
D03*
X478800Y811200D02*
G54D16*
D03*
X1379400Y1385500D02*
G54D18*
D03*
X1379400Y1343500D02*
G54D18*
D03*
X1379400Y1302500D02*
G54D18*
D03*
X1379400Y1261500D02*
G54D18*
D03*
X1379400Y1343500D02*
G54D17*
D03*
X1379400Y1302500D02*
G54D17*
D03*
X1379400Y1261500D02*
G54D17*
D03*
X1074700Y1194000D02*
G54D15*
D03*
X1049300Y1194000D02*
G54D15*
D03*
X1023900Y1194000D02*
G54D15*
D03*
X998500Y1194000D02*
G54D15*
D03*
X973100Y1194000D02*
G54D15*
D03*
X947700Y1194000D02*
G54D15*
D03*
X922300Y1194000D02*
G54D15*
D03*
X896900Y1194000D02*
G54D15*
D03*
X871500Y1194000D02*
G54D15*
D03*
X846100Y1194000D02*
G54D15*
D03*
X820700Y1194000D02*
G54D15*
D03*
X795300Y1194000D02*
G54D15*
D03*
X820700Y1194000D02*
G54D14*
D03*
X846100Y1194000D02*
G54D14*
D03*
X871500Y1194000D02*
G54D14*
D03*
X896900Y1194000D02*
G54D14*
D03*
X922300Y1194000D02*
G54D14*
D03*
X947700Y1194000D02*
G54D14*
D03*
X973100Y1194000D02*
G54D14*
D03*
X998500Y1194000D02*
G54D14*
D03*
X1023900Y1194000D02*
G54D14*
D03*
X1049300Y1194000D02*
G54D14*
D03*
X1074700Y1194000D02*
G54D14*
D03*
X795300Y1194000D02*
G54D14*
D03*
X1074700Y1342000D02*
G54D15*
D03*
X1049300Y1342000D02*
G54D15*
D03*
X1023900Y1342000D02*
G54D15*
D03*
X998500Y1342000D02*
G54D15*
D03*
X973100Y1342000D02*
G54D15*
D03*
X947700Y1342000D02*
G54D15*
D03*
X922300Y1342000D02*
G54D15*
D03*
X896900Y1342000D02*
G54D15*
D03*
X871500Y1342000D02*
G54D15*
D03*
X846100Y1342000D02*
G54D15*
D03*
X820700Y1342000D02*
G54D15*
D03*
X795300Y1342000D02*
G54D15*
D03*
X820700Y1342000D02*
G54D14*
D03*
X846100Y1342000D02*
G54D14*
D03*
X871500Y1342000D02*
G54D14*
D03*
X896900Y1342000D02*
G54D14*
D03*
X922300Y1342000D02*
G54D14*
D03*
X947700Y1342000D02*
G54D14*
D03*
X973100Y1342000D02*
G54D14*
D03*
X998500Y1342000D02*
G54D14*
D03*
X1023900Y1342000D02*
G54D14*
D03*
X1049300Y1342000D02*
G54D14*
D03*
X1074700Y1342000D02*
G54D14*
D03*
X795300Y1342000D02*
G54D14*
D03*
X795400Y1168200D02*
G54D16*
D03*
X820800Y1168200D02*
G54D16*
D03*
X846200Y1168200D02*
G54D16*
D03*
X871600Y1168200D02*
G54D16*
D03*
X897000Y1168200D02*
G54D16*
D03*
X922400Y1168200D02*
G54D16*
D03*
X947800Y1168200D02*
G54D16*
D03*
X973200Y1168200D02*
G54D16*
D03*
X998600Y1168200D02*
G54D16*
D03*
X1024000Y1168200D02*
G54D16*
D03*
X1049400Y1168200D02*
G54D16*
D03*
X1074800Y1168200D02*
G54D16*
D03*
X795400Y1367200D02*
G54D16*
D03*
X820800Y1367200D02*
G54D16*
D03*
X846200Y1367200D02*
G54D16*
D03*
X871600Y1367200D02*
G54D16*
D03*
X897000Y1367200D02*
G54D16*
D03*
X922400Y1367200D02*
G54D16*
D03*
X947800Y1367200D02*
G54D16*
D03*
X973200Y1367200D02*
G54D16*
D03*
X998600Y1367200D02*
G54D16*
D03*
X1024000Y1367200D02*
G54D16*
D03*
X1049400Y1367200D02*
G54D16*
D03*
X1074800Y1367200D02*
G54D16*
D03*
G36*
X58250Y1475750D02*
X83750Y1475750D01*
X83750Y1450250D01*
X58250Y1450250D01*
X58250Y1475750D01*
G37*
X96400Y1463000D02*
G54D19*
D03*
X121800Y1463000D02*
G54D19*
D03*
X147200Y1463000D02*
G54D19*
D03*
X172600Y1463000D02*
G54D19*
D03*
X198000Y1463000D02*
G54D19*
D03*
X223400Y1463000D02*
G54D19*
D03*
X248800Y1463000D02*
G54D19*
D03*
X274200Y1463000D02*
G54D19*
D03*
X299600Y1463000D02*
G54D19*
D03*
X325000Y1463000D02*
G54D19*
D03*
X350400Y1463000D02*
G54D19*
D03*
X375800Y1463000D02*
G54D19*
D03*
X401200Y1463000D02*
G54D19*
D03*
X426600Y1463000D02*
G54D19*
D03*
X452000Y1463000D02*
G54D19*
D03*
X172600Y1263000D02*
G54D19*
D03*
X198000Y1263000D02*
G54D19*
D03*
X223400Y1263000D02*
G54D19*
D03*
X248800Y1263000D02*
G54D19*
D03*
X274200Y1263000D02*
G54D19*
D03*
X299600Y1263000D02*
G54D19*
D03*
X325000Y1263000D02*
G54D19*
D03*
X350400Y1263000D02*
G54D19*
D03*
X375800Y1263000D02*
G54D19*
D03*
X401200Y1263000D02*
G54D19*
D03*
X426600Y1263000D02*
G54D19*
D03*
X452000Y1263000D02*
G54D19*
D03*
X548000Y1416000D02*
G54D20*
D03*
X528000Y1416000D02*
G54D20*
D03*
X504000Y1477000D02*
G54D21*
D03*
X574000Y1477000D02*
G54D21*
D03*
X514000Y1417000D02*
G54D22*
D03*
X549000Y1383000D02*
G54D22*
D03*
X705000Y1242000D02*
G54D17*
D03*
X659000Y1206000D02*
G54D17*
D03*
X428000Y1299000D02*
G54D17*
D03*
X444000Y1298000D02*
G54D17*
D03*
X710000Y1274000D02*
G54D17*
D03*
X710000Y1317000D02*
G54D17*
D03*
X697000Y1256000D02*
G54D17*
D03*
X689000Y1265000D02*
G54D17*
D03*
M02*
