%FSLAX34Y34*%
%MOMM*%
%LNSMDMASK_BOTTOM*%
G71*
G01*
%ADD10R,1.550X5.000*%
%ADD11R,5.000X3.050*%
%ADD12R,1.000X5.000*%
%ADD13R,1.500X3.400*%
%LPD*%
X477700Y1091000D02*
G54D10*
D03*
X452300Y1091000D02*
G54D10*
D03*
X426900Y1091000D02*
G54D10*
D03*
X401500Y1091000D02*
G54D10*
D03*
X376100Y1091000D02*
G54D10*
D03*
X350700Y1091000D02*
G54D10*
D03*
X325300Y1091000D02*
G54D10*
D03*
X299900Y1091000D02*
G54D10*
D03*
X274500Y1091000D02*
G54D10*
D03*
X249100Y1091000D02*
G54D10*
D03*
X223700Y1091000D02*
G54D10*
D03*
X198300Y1091000D02*
G54D10*
D03*
X478700Y785000D02*
G54D10*
D03*
X453300Y785000D02*
G54D10*
D03*
X427900Y785000D02*
G54D10*
D03*
X402500Y785000D02*
G54D10*
D03*
X377100Y785000D02*
G54D10*
D03*
X351700Y785000D02*
G54D10*
D03*
X326300Y785000D02*
G54D10*
D03*
X300900Y785000D02*
G54D10*
D03*
X275500Y785000D02*
G54D10*
D03*
X250100Y785000D02*
G54D10*
D03*
X224700Y785000D02*
G54D10*
D03*
X199300Y785000D02*
G54D10*
D03*
X1379400Y1385500D02*
G54D11*
D03*
X1379400Y1343500D02*
G54D11*
D03*
X1379400Y1302500D02*
G54D11*
D03*
X1379400Y1261500D02*
G54D11*
D03*
X1074700Y1194000D02*
G54D10*
D03*
X1049300Y1194000D02*
G54D10*
D03*
X1023900Y1194000D02*
G54D10*
D03*
X998500Y1194000D02*
G54D10*
D03*
X973100Y1194000D02*
G54D10*
D03*
X947700Y1194000D02*
G54D10*
D03*
X922300Y1194000D02*
G54D10*
D03*
X896900Y1194000D02*
G54D10*
D03*
X871500Y1194000D02*
G54D10*
D03*
X846100Y1194000D02*
G54D10*
D03*
X820700Y1194000D02*
G54D10*
D03*
X795300Y1194000D02*
G54D10*
D03*
X1074700Y1342000D02*
G54D10*
D03*
X1049300Y1342000D02*
G54D10*
D03*
X1023900Y1342000D02*
G54D10*
D03*
X998500Y1342000D02*
G54D10*
D03*
X973100Y1342000D02*
G54D10*
D03*
X947700Y1342000D02*
G54D10*
D03*
X922300Y1342000D02*
G54D10*
D03*
X896900Y1342000D02*
G54D10*
D03*
X871500Y1342000D02*
G54D10*
D03*
X846100Y1342000D02*
G54D10*
D03*
X820700Y1342000D02*
G54D10*
D03*
X795300Y1342000D02*
G54D10*
D03*
X548000Y1416000D02*
G54D12*
D03*
X528000Y1416000D02*
G54D12*
D03*
X504000Y1477000D02*
G54D13*
D03*
X574000Y1477000D02*
G54D13*
D03*
M02*
