%FSLAX34Y34*%
%MOMM*%
%LNCOPPER_TOP*%
G71*
G01*
%ADD10C,4.250*%
%ADD11R,2.000X1.900*%
%ADD12R,2.000X2.250*%
%ADD13C,1.500*%
%ADD14C,1.700*%
%ADD15C,2.300*%
%ADD16R,4.650X6.600*%
%ADD17C,1.600*%
%ADD18R,2.300X3.400*%
%ADD19C,3.550*%
%ADD20C,4.850*%
%ADD21R,3.000X1.500*%
%ADD22R,5.800X6.000*%
%ADD23R,5.400X5.650*%
%ADD24C,2.700*%
%ADD25R,7.000X5.050*%
%ADD26C,2.600*%
%ADD27R,2.300X3.800*%
%ADD28R,2.550X6.000*%
%ADD29R,1.700X1.850*%
%ADD30R,1.900X2.000*%
%ADD31C,1.700*%
%ADD32R,4.500X4.500*%
%ADD33C,1.200*%
%ADD34C,1.500*%
%ADD35R,3.200X1.600*%
%ADD36C,1.450*%
%ADD37C,1.400*%
%ADD38C,2.050*%
%ADD39C,1.750*%
%ADD40C,1.550*%
%ADD41R,2.100X4.800*%
%ADD42C,2.750*%
%ADD43C,2.000*%
%ADD44C,0.750*%
%ADD45C,0.513*%
%ADD46C,0.535*%
%ADD47C,1.017*%
%ADD48C,0.500*%
%ADD49C,0.950*%
%ADD50C,0.483*%
%ADD51C,0.467*%
%ADD52C,0.517*%
%ADD53C,0.300*%
%ADD54C,0.233*%
%ADD55C,0.267*%
%ADD56C,0.367*%
%ADD57C,0.250*%
%ADD58C,0.433*%
%ADD59C,0.650*%
%ADD60C,0.333*%
%ADD61C,2.250*%
%ADD62R,1.200X1.100*%
%ADD63R,1.200X1.450*%
%ADD64C,0.700*%
%ADD65R,3.050X5.000*%
%ADD66C,0.600*%
%ADD67R,1.500X2.600*%
%ADD68C,2.150*%
%ADD69C,2.850*%
%ADD70R,2.200X0.700*%
%ADD71R,3.800X4.000*%
%ADD72R,3.800X4.050*%
%ADD73R,5.000X3.050*%
%ADD74C,1.400*%
%ADD75R,1.500X3.000*%
%ADD76R,1.550X5.000*%
%ADD77R,0.900X1.050*%
%ADD78R,1.100X1.200*%
%ADD79C,0.700*%
%ADD80C,0.400*%
%ADD81R,2.500X2.500*%
%ADD82R,2.400X0.800*%
%ADD83C,1.250*%
%ADD84C,0.750*%
%ADD85R,1.300X4.000*%
%ADD86C,1.950*%
%ADD87C,1.000*%
%LPD*%
G36*
X0Y1500000D02*
X1556000Y1500000D01*
X1556000Y539000D01*
X0Y539000D01*
X0Y1500000D01*
G37*
%LPC*%
X1211100Y1287700D02*
G54D10*
D03*
X1261100Y1287700D02*
G54D10*
D03*
X1236100Y1287700D02*
G54D10*
D03*
X1211100Y1432700D02*
G54D10*
D03*
X1261100Y1432700D02*
G54D10*
D03*
X1209600Y1326200D02*
G54D11*
D03*
X1209600Y1309200D02*
G54D11*
D03*
X1259600Y1326200D02*
G54D11*
D03*
X1259600Y1309200D02*
G54D11*
D03*
X1227600Y1359200D02*
G54D11*
D03*
X1227600Y1340200D02*
G54D12*
D03*
X1250600Y1359200D02*
G54D11*
D03*
X1250600Y1340200D02*
G54D12*
D03*
G54D13*
X1209600Y1309200D02*
X1211100Y1287700D01*
G54D13*
X1259600Y1309200D02*
X1261100Y1287700D01*
G54D14*
X1259600Y1326200D02*
X1267600Y1326200D01*
X1284100Y1309700D01*
X1284100Y1271100D01*
X1257300Y1246300D01*
G54D15*
X1218500Y1232300D02*
X1218500Y1244300D01*
X1192100Y1270700D01*
X1192100Y1314700D01*
X1209600Y1326200D01*
X1208500Y1240300D02*
G54D16*
D03*
X1259300Y1240300D02*
G54D16*
D03*
X1310100Y1240300D02*
G54D16*
D03*
X1157700Y1240300D02*
G54D16*
D03*
G54D17*
X1209600Y1326200D02*
X1226600Y1340200D01*
G54D17*
X1250600Y1340200D02*
X1258600Y1326200D01*
X1259600Y1326200D01*
G54D17*
X1211100Y1432700D02*
X1211100Y1350700D01*
X1159100Y1298700D01*
X1157100Y1293700D01*
X1157700Y1240300D01*
X1161100Y1362700D02*
G54D18*
D03*
X1191100Y1362700D02*
G54D18*
D03*
X1281100Y1362700D02*
G54D18*
D03*
X1311100Y1362700D02*
G54D18*
D03*
X67800Y913200D02*
G54D19*
D03*
X67800Y950900D02*
G54D19*
D03*
X67800Y1026300D02*
G54D20*
D03*
X1342700Y989000D02*
G54D20*
D03*
X1342700Y1026700D02*
G54D20*
D03*
X1393400Y1083500D02*
G54D21*
D03*
X1393400Y1070800D02*
G54D21*
D03*
X1393400Y1058100D02*
G54D21*
D03*
X1393400Y1045400D02*
G54D21*
D03*
X1447400Y1045400D02*
G54D21*
D03*
X1447400Y1058100D02*
G54D21*
D03*
X1447400Y1070800D02*
G54D21*
D03*
X1447400Y1083500D02*
G54D21*
D03*
X1473400Y1115500D02*
G54D22*
D03*
X1366400Y1114500D02*
G54D23*
D03*
G54D24*
X1447400Y1058100D02*
X1417900Y1058100D01*
X1411800Y1064200D01*
X1394100Y1064200D01*
X1393400Y1063500D01*
G54D24*
X1468400Y1107500D02*
X1478400Y1097500D01*
X1478400Y1077500D01*
X1473400Y1072500D01*
G54D24*
X1452400Y1070800D02*
X1470700Y1070800D01*
X1478400Y1078500D01*
G54D24*
X1375400Y1113500D02*
X1375400Y1093500D01*
X1385400Y1083500D01*
X1400400Y1083500D01*
X1467400Y1017500D02*
G54D25*
D03*
X1467400Y975500D02*
G54D25*
D03*
X1467400Y934500D02*
G54D25*
D03*
X1467400Y893500D02*
G54D25*
D03*
X1421503Y1114674D02*
G54D26*
D03*
X300200Y970500D02*
G54D27*
D03*
X325100Y970500D02*
G54D27*
D03*
X1135200Y970500D02*
G54D27*
D03*
X1160100Y970500D02*
G54D27*
D03*
G54D13*
X302400Y981500D02*
X325400Y981500D01*
G54D13*
X303400Y959500D02*
X325400Y959500D01*
X1135200Y970500D02*
G54D27*
D03*
X1160100Y970500D02*
G54D27*
D03*
G54D13*
X1137400Y981500D02*
X1160400Y981500D01*
G54D13*
X1138400Y959500D02*
X1160400Y959500D01*
X477700Y1091000D02*
G54D28*
D03*
X452300Y1091000D02*
G54D28*
D03*
X426900Y1091000D02*
G54D28*
D03*
X401500Y1091000D02*
G54D28*
D03*
X376100Y1091000D02*
G54D28*
D03*
X350700Y1091000D02*
G54D28*
D03*
X325300Y1091000D02*
G54D28*
D03*
X299900Y1091000D02*
G54D28*
D03*
X274500Y1091000D02*
G54D28*
D03*
X249100Y1091000D02*
G54D28*
D03*
X223700Y1091000D02*
G54D28*
D03*
X198300Y1091000D02*
G54D28*
D03*
G54D17*
X477700Y1091000D02*
X505900Y1091000D01*
X539700Y1124800D01*
X1075400Y1124800D01*
X1082600Y1117600D01*
G54D17*
X452300Y1091000D02*
X452300Y1061200D01*
X463300Y1050200D01*
X1319200Y1050200D01*
X1342700Y1026700D01*
G54D17*
X425200Y1080000D02*
X425200Y1054000D01*
X445900Y1034300D01*
X1197600Y1035300D01*
X1243000Y988900D01*
X1342600Y988900D01*
X1342700Y989000D01*
G54D17*
X1393400Y1045400D02*
X1393400Y1029700D01*
X1380700Y1017000D01*
X1380700Y974500D01*
X1358200Y952000D01*
G54D17*
X379000Y1013000D02*
X379100Y996700D01*
X405200Y967600D01*
X938900Y967600D01*
X984200Y927100D01*
X1302000Y928100D01*
G54D17*
X1440000Y1045500D02*
X1432400Y1045500D01*
X1414400Y1027500D01*
G54D17*
X1448500Y969800D02*
X1446500Y969800D01*
X1369000Y896400D01*
X963400Y895800D01*
X921000Y925200D01*
X401000Y927000D01*
G54D17*
X1467400Y934500D02*
X1437800Y934500D01*
X1378800Y880300D01*
X928800Y879600D01*
X904100Y906800D01*
X291000Y905800D01*
X276000Y917000D01*
X1009344Y970953D02*
G54D29*
D03*
X1009344Y995653D02*
G54D29*
D03*
X1066344Y971753D02*
G54D29*
D03*
X1066344Y996453D02*
G54D29*
D03*
X1272800Y952000D02*
G54D30*
D03*
X1255800Y952000D02*
G54D30*
D03*
X1319000Y928100D02*
G54D30*
D03*
X1302000Y928100D02*
G54D30*
D03*
G54D17*
X1272800Y952000D02*
X1358200Y952000D01*
X1380700Y974500D01*
G54D17*
X1414400Y1027500D02*
X1402800Y1015900D01*
X1402800Y967600D01*
X1354400Y928100D01*
G54D17*
X1319000Y928100D02*
X1354400Y928100D01*
X1066000Y927000D02*
G54D31*
D03*
X1066000Y955000D02*
G54D31*
D03*
G54D17*
X1066000Y955000D02*
X1066000Y971409D01*
X1066344Y971753D01*
G54D17*
X1009344Y970953D02*
X1009344Y943344D01*
X1009000Y943000D01*
G54D17*
X401500Y1007000D02*
X401500Y992500D01*
X413000Y981000D01*
X504000Y981000D01*
X515000Y993000D01*
G54D17*
X1255800Y952000D02*
X1198400Y951900D01*
X1183500Y941500D01*
X995700Y942600D01*
X937600Y992300D01*
X515000Y993000D01*
G54D17*
X1467400Y1017500D02*
X1463900Y1014000D01*
X1426300Y1014000D01*
X1419200Y1006900D01*
X1419200Y963100D01*
X1359300Y911600D01*
X973900Y911100D01*
X929900Y946200D01*
X404000Y946200D01*
X356400Y994800D01*
G54D17*
X326300Y1008000D02*
X325300Y1007000D01*
X325300Y1002700D01*
X401000Y927000D01*
G54D17*
X299900Y1007000D02*
X299900Y1001900D01*
X276000Y978000D01*
X276000Y917000D01*
X21000Y1070000D02*
G54D32*
D03*
X21000Y992000D02*
G54D32*
D03*
X21000Y943000D02*
G54D32*
D03*
G54D33*
X223700Y1091000D02*
X223700Y1057700D01*
X217000Y1051000D01*
X111000Y1051000D01*
X92000Y1070000D01*
X21000Y1070000D01*
G54D33*
X21000Y992000D02*
X137000Y992000D01*
X158000Y971000D01*
X229000Y971000D01*
X246000Y988000D01*
X249100Y1007000D01*
G54D33*
X274500Y1007000D02*
X274500Y996500D01*
X237000Y959000D01*
X141000Y959000D01*
X125000Y975000D01*
X53000Y975000D01*
X21000Y943000D01*
X158000Y1090000D02*
G54D34*
D03*
X126000Y1011000D02*
G54D11*
D03*
X126000Y1028000D02*
G54D11*
D03*
X153000Y1011000D02*
G54D11*
D03*
X153000Y1028000D02*
G54D11*
D03*
G54D33*
X126000Y1011000D02*
X126000Y992000D01*
X141000Y959000D02*
G54D34*
D03*
X170000Y991000D02*
G54D34*
D03*
G54D33*
X153000Y1011000D02*
X153000Y1008000D01*
X170000Y991000D01*
X1142066Y1117801D02*
G54D35*
D03*
X1142066Y1105101D02*
G54D35*
D03*
X1142066Y1092401D02*
G54D35*
D03*
X1142067Y1079701D02*
G54D35*
D03*
X1192066Y1079701D02*
G54D35*
D03*
X1192066Y1092401D02*
G54D35*
D03*
X1192066Y1105101D02*
G54D35*
D03*
X1192066Y1117801D02*
G54D35*
D03*
X1222000Y1091000D02*
G54D11*
D03*
X1222000Y1108000D02*
G54D11*
D03*
X1245000Y1091000D02*
G54D11*
D03*
X1245000Y1108000D02*
G54D11*
D03*
G54D33*
X1197000Y1105000D02*
X1219000Y1105000D01*
X1222000Y1108000D01*
G54D33*
X1222000Y1091000D02*
X1199000Y1091000D01*
X1198000Y1092000D01*
G54D33*
X1201000Y1118000D02*
X1205000Y1118000D01*
X1212000Y1125000D01*
X1239000Y1125000D01*
X1244000Y1120000D01*
X1244000Y1109000D01*
X1245000Y1108000D01*
G54D36*
X1245000Y1108000D02*
X1314000Y1108000D01*
X1336000Y1086000D01*
X1354000Y1086000D01*
X1375000Y1065000D01*
X1391900Y1065000D01*
X1393400Y1063500D01*
X1092000Y1118000D02*
G54D11*
D03*
X1092000Y1101000D02*
G54D11*
D03*
X1115000Y1101000D02*
G54D11*
D03*
X1115000Y1118000D02*
G54D11*
D03*
G54D37*
X1146000Y1117000D02*
X1158000Y1117000D01*
X1164000Y1111000D01*
X1164000Y1095000D01*
X1163000Y1094000D01*
X1152000Y1094000D01*
X1150000Y1092000D01*
G54D33*
X1138000Y1106000D02*
X1127000Y1106000D01*
X1122000Y1101000D01*
X1115000Y1101000D01*
G54D37*
X1115000Y1118000D02*
X1138000Y1118000D01*
G54D37*
X1082600Y1117600D02*
X1114600Y1117600D01*
X1115000Y1118000D01*
G54D37*
X401500Y992500D02*
X401500Y1082500D01*
X402000Y1083000D01*
G54D37*
X379000Y1013000D02*
X379000Y1075000D01*
X377000Y1077000D01*
G54D37*
X356400Y994800D02*
X356400Y1053600D01*
X352000Y1058000D01*
X352000Y1080000D01*
G54D37*
X325300Y1007000D02*
X325300Y1091000D01*
G54D37*
X299900Y1007000D02*
X299900Y1091000D01*
G54D37*
X274500Y1007000D02*
X274500Y1091000D01*
G54D37*
X249100Y1007000D02*
X249100Y1091000D01*
G54D37*
X126000Y1028000D02*
X153000Y1028000D01*
X239000Y1058000D02*
G54D34*
D03*
G54D37*
X153000Y1028000D02*
X208000Y1028000D01*
X239000Y1058000D01*
X424200Y1058000D02*
G54D34*
D03*
X223700Y1091000D02*
G54D34*
D03*
X249100Y1091000D02*
G54D34*
D03*
X274500Y1091000D02*
G54D34*
D03*
X299900Y1091000D02*
G54D34*
D03*
X325300Y1091000D02*
G54D34*
D03*
X350700Y1091000D02*
G54D34*
D03*
X376100Y1091000D02*
G54D34*
D03*
X401500Y1091000D02*
G54D34*
D03*
X426900Y1091000D02*
G54D34*
D03*
X452300Y1091000D02*
G54D34*
D03*
X477700Y1091000D02*
G54D34*
D03*
X198300Y1091000D02*
G54D34*
D03*
X198400Y1118200D02*
G54D38*
D03*
X223800Y1118200D02*
G54D38*
D03*
X249200Y1118200D02*
G54D38*
D03*
X274600Y1118200D02*
G54D38*
D03*
X300000Y1118200D02*
G54D38*
D03*
X325400Y1118200D02*
G54D38*
D03*
X350800Y1118200D02*
G54D38*
D03*
X376200Y1118200D02*
G54D38*
D03*
X401600Y1118200D02*
G54D38*
D03*
X427000Y1118200D02*
G54D38*
D03*
X452400Y1118200D02*
G54D38*
D03*
X477800Y1118200D02*
G54D38*
D03*
X1379400Y1385500D02*
G54D39*
D03*
X1259300Y1240300D02*
G54D39*
D03*
X1208500Y1240300D02*
G54D39*
D03*
X820000Y1081000D02*
G54D40*
D03*
X820000Y1014000D02*
G54D40*
D03*
X1415000Y876000D02*
G54D40*
D03*
X68800Y607200D02*
G54D19*
D03*
X68800Y644900D02*
G54D19*
D03*
X68800Y720300D02*
G54D20*
D03*
X1343700Y683000D02*
G54D20*
D03*
X1343700Y720700D02*
G54D20*
D03*
X1394400Y777500D02*
G54D21*
D03*
X1394400Y764800D02*
G54D21*
D03*
X1394400Y752100D02*
G54D21*
D03*
X1394400Y739400D02*
G54D21*
D03*
X1448400Y739400D02*
G54D21*
D03*
X1448400Y752100D02*
G54D21*
D03*
X1448400Y764800D02*
G54D21*
D03*
X1448400Y777500D02*
G54D21*
D03*
X1474400Y809500D02*
G54D22*
D03*
X1367400Y808500D02*
G54D23*
D03*
G54D24*
X1448400Y752100D02*
X1418900Y752100D01*
X1412800Y758200D01*
X1395100Y758200D01*
X1394400Y757500D01*
G54D24*
X1469400Y801500D02*
X1479400Y791500D01*
X1479400Y771500D01*
X1474400Y766500D01*
G54D24*
X1453400Y764800D02*
X1471700Y764800D01*
X1479400Y772500D01*
G54D24*
X1376400Y807500D02*
X1376400Y787500D01*
X1386400Y777500D01*
X1401400Y777500D01*
X1468400Y711500D02*
G54D25*
D03*
X1468400Y669500D02*
G54D25*
D03*
X1468400Y628500D02*
G54D25*
D03*
X1468400Y587500D02*
G54D25*
D03*
X1422503Y808674D02*
G54D26*
D03*
X301200Y664500D02*
G54D27*
D03*
X326100Y664500D02*
G54D27*
D03*
X1136200Y664500D02*
G54D27*
D03*
X1161100Y664500D02*
G54D27*
D03*
G54D13*
X303400Y675500D02*
X326400Y675500D01*
G54D13*
X304400Y653500D02*
X326400Y653500D01*
X1136200Y664500D02*
G54D27*
D03*
X1161100Y664500D02*
G54D27*
D03*
G54D13*
X1138400Y675500D02*
X1161400Y675500D01*
G54D13*
X1139400Y653500D02*
X1161400Y653500D01*
X478700Y785000D02*
G54D28*
D03*
X453300Y785000D02*
G54D28*
D03*
X427900Y785000D02*
G54D28*
D03*
X402500Y785000D02*
G54D28*
D03*
X377100Y785000D02*
G54D28*
D03*
X351700Y785000D02*
G54D28*
D03*
X326300Y785000D02*
G54D28*
D03*
X300900Y785000D02*
G54D28*
D03*
X275500Y785000D02*
G54D28*
D03*
X250100Y785000D02*
G54D28*
D03*
X224700Y785000D02*
G54D28*
D03*
X199300Y785000D02*
G54D28*
D03*
G54D17*
X478700Y785000D02*
X506900Y785000D01*
X540700Y818800D01*
X1076400Y818800D01*
X1093000Y812000D01*
G54D17*
X453300Y785000D02*
X453300Y755200D01*
X464300Y744200D01*
X1320200Y744200D01*
X1343700Y720700D01*
G54D17*
X426200Y774000D02*
X426200Y748000D01*
X446900Y728300D01*
X1198600Y729300D01*
X1244000Y682900D01*
X1343600Y682900D01*
X1343700Y683000D01*
G54D17*
X1394400Y739400D02*
X1394400Y723700D01*
X1381700Y711000D01*
X1381700Y668500D01*
X1359200Y646000D01*
G54D17*
X380000Y707000D02*
X380100Y690700D01*
X406200Y661600D01*
X939900Y661600D01*
X985200Y621100D01*
X1303000Y622100D01*
G54D17*
X1441000Y739500D02*
X1433400Y739500D01*
X1415400Y721500D01*
G54D17*
X1449500Y663800D02*
X1447500Y663800D01*
X1370000Y590400D01*
X964400Y589800D01*
X922000Y619200D01*
X402000Y621000D01*
G54D17*
X1468400Y628500D02*
X1438800Y628500D01*
X1379800Y574300D01*
X929800Y573600D01*
X905100Y600800D01*
X292000Y599800D01*
X277000Y611000D01*
X1010344Y664953D02*
G54D29*
D03*
X1010344Y689653D02*
G54D29*
D03*
X1067344Y665753D02*
G54D29*
D03*
X1067344Y690453D02*
G54D29*
D03*
X1273800Y646000D02*
G54D30*
D03*
X1256800Y646000D02*
G54D30*
D03*
X1320000Y622100D02*
G54D30*
D03*
X1303000Y622100D02*
G54D30*
D03*
G54D17*
X1273800Y646000D02*
X1359200Y646000D01*
X1381700Y668500D01*
G54D17*
X1415400Y721500D02*
X1403800Y709900D01*
X1403800Y661600D01*
X1355400Y622100D01*
G54D17*
X1320000Y622100D02*
X1355400Y622100D01*
X1067000Y621000D02*
G54D31*
D03*
X1067000Y649000D02*
G54D31*
D03*
G54D17*
X1067000Y649000D02*
X1067000Y665409D01*
X1067344Y665753D01*
G54D17*
X1010344Y664953D02*
X1010344Y637344D01*
X1010000Y637000D01*
G54D17*
X402500Y701000D02*
X402500Y686500D01*
X414000Y675000D01*
X505000Y675000D01*
X516000Y687000D01*
G54D17*
X1256800Y646000D02*
X1199400Y645900D01*
X1184500Y635500D01*
X996700Y636600D01*
X938600Y686300D01*
X516000Y687000D01*
G54D17*
X1468400Y711500D02*
X1464900Y708000D01*
X1427300Y708000D01*
X1420200Y700900D01*
X1420200Y657100D01*
X1360300Y605600D01*
X974900Y605100D01*
X930900Y640200D01*
X405000Y640200D01*
X357400Y688800D01*
G54D17*
X327300Y702000D02*
X326300Y701000D01*
X326300Y696700D01*
X402000Y621000D01*
G54D17*
X300900Y701000D02*
X300900Y695900D01*
X277000Y672000D01*
X277000Y611000D01*
X22000Y764000D02*
G54D32*
D03*
X22000Y686000D02*
G54D32*
D03*
X22000Y637000D02*
G54D32*
D03*
G54D33*
X224700Y785000D02*
X224700Y751700D01*
X218000Y745000D01*
X112000Y745000D01*
X93000Y764000D01*
X22000Y764000D01*
G54D33*
X22000Y686000D02*
X138000Y686000D01*
X159000Y665000D01*
X230000Y665000D01*
X247000Y682000D01*
X250100Y701000D01*
G54D33*
X275500Y701000D02*
X275500Y690500D01*
X238000Y653000D01*
X142000Y653000D01*
X126000Y669000D01*
X54000Y669000D01*
X22000Y637000D01*
X159000Y784000D02*
G54D34*
D03*
X127000Y705000D02*
G54D11*
D03*
X127000Y722000D02*
G54D11*
D03*
X154000Y705000D02*
G54D11*
D03*
X154000Y722000D02*
G54D11*
D03*
G54D33*
X127000Y705000D02*
X127000Y686000D01*
X142000Y653000D02*
G54D34*
D03*
X171000Y685000D02*
G54D34*
D03*
G54D33*
X154000Y705000D02*
X154000Y702000D01*
X171000Y685000D01*
X1143066Y811801D02*
G54D35*
D03*
X1143066Y799101D02*
G54D35*
D03*
X1143066Y786401D02*
G54D35*
D03*
X1143067Y773701D02*
G54D35*
D03*
X1193066Y773701D02*
G54D35*
D03*
X1193066Y786401D02*
G54D35*
D03*
X1193066Y799101D02*
G54D35*
D03*
X1193066Y811801D02*
G54D35*
D03*
X1223000Y785000D02*
G54D11*
D03*
X1223000Y802000D02*
G54D11*
D03*
X1246000Y785000D02*
G54D11*
D03*
X1246000Y802000D02*
G54D11*
D03*
G54D33*
X1198000Y799000D02*
X1220000Y799000D01*
X1223000Y802000D01*
G54D33*
X1223000Y785000D02*
X1200000Y785000D01*
X1199000Y786000D01*
G54D36*
X1246000Y802000D02*
X1315000Y802000D01*
X1337000Y780000D01*
X1355000Y780000D01*
X1376000Y759000D01*
X1392900Y759000D01*
X1394400Y757500D01*
X1093000Y812000D02*
G54D11*
D03*
X1093000Y795000D02*
G54D11*
D03*
X1114000Y794000D02*
G54D11*
D03*
X1114000Y811000D02*
G54D11*
D03*
G54D37*
X1147000Y811000D02*
X1159000Y811000D01*
X1165000Y805000D01*
X1165000Y789000D01*
X1164000Y788000D01*
X1153000Y788000D01*
X1151000Y786000D01*
G54D33*
X1139000Y800000D02*
X1128000Y800000D01*
X1123000Y795000D01*
X1116000Y795000D01*
G54D37*
X402500Y686500D02*
X402500Y776500D01*
X403000Y777000D01*
G54D37*
X380000Y707000D02*
X380000Y769000D01*
X378000Y771000D01*
G54D37*
X357400Y688800D02*
X357400Y747600D01*
X353000Y752000D01*
X353000Y774000D01*
G54D37*
X326300Y701000D02*
X326300Y785000D01*
G54D37*
X300900Y701000D02*
X300900Y785000D01*
G54D37*
X275500Y701000D02*
X275500Y785000D01*
G54D37*
X250100Y701000D02*
X250100Y785000D01*
G54D37*
X127000Y722000D02*
X154000Y722000D01*
X240000Y752000D02*
G54D34*
D03*
G54D37*
X154000Y722000D02*
X209000Y722000D01*
X240000Y752000D01*
X425200Y752000D02*
G54D34*
D03*
X224700Y785000D02*
G54D34*
D03*
X250100Y785000D02*
G54D34*
D03*
X275500Y785000D02*
G54D34*
D03*
X300900Y785000D02*
G54D34*
D03*
X326300Y785000D02*
G54D34*
D03*
X351700Y785000D02*
G54D34*
D03*
X377100Y785000D02*
G54D34*
D03*
X402500Y785000D02*
G54D34*
D03*
X427900Y785000D02*
G54D34*
D03*
X453300Y785000D02*
G54D34*
D03*
X478700Y785000D02*
G54D34*
D03*
X199300Y785000D02*
G54D34*
D03*
X821000Y775000D02*
G54D40*
D03*
X821000Y708000D02*
G54D40*
D03*
X1416000Y570000D02*
G54D40*
D03*
X199400Y811200D02*
G54D38*
D03*
X224800Y811200D02*
G54D38*
D03*
X250200Y811200D02*
G54D38*
D03*
X275600Y811200D02*
G54D38*
D03*
X301000Y811200D02*
G54D38*
D03*
X326400Y811200D02*
G54D38*
D03*
X351800Y811200D02*
G54D38*
D03*
X377200Y811200D02*
G54D38*
D03*
X402600Y811200D02*
G54D38*
D03*
X428000Y811200D02*
G54D38*
D03*
X453400Y811200D02*
G54D38*
D03*
X478800Y811200D02*
G54D38*
D03*
X1379400Y1385500D02*
G54D25*
D03*
X1379400Y1343500D02*
G54D25*
D03*
X1379400Y1302500D02*
G54D25*
D03*
X1379400Y1261500D02*
G54D25*
D03*
X1379400Y1343500D02*
G54D40*
D03*
X1379400Y1302500D02*
G54D40*
D03*
X1379400Y1261500D02*
G54D40*
D03*
G54D33*
X1211100Y1432700D02*
X1211100Y1415900D01*
X1234000Y1393000D01*
X1371900Y1393000D01*
X1379400Y1385500D01*
G54D33*
X1284100Y1271100D02*
X1285100Y1271100D01*
X1310000Y1296000D01*
X1360000Y1296000D01*
X1361000Y1297000D01*
G54D37*
X1093000Y812000D02*
X1125000Y812000D01*
X1143066Y811801D01*
G54D33*
X1203000Y812000D02*
X1207000Y812000D01*
X1214000Y819000D01*
X1241000Y819000D01*
X1246000Y814000D01*
X1246000Y803000D01*
X1247000Y802000D01*
X820700Y1194000D02*
G54D34*
D03*
X846100Y1194000D02*
G54D34*
D03*
X871500Y1194000D02*
G54D34*
D03*
X896900Y1194000D02*
G54D34*
D03*
X922300Y1194000D02*
G54D34*
D03*
X947700Y1194000D02*
G54D34*
D03*
X973100Y1194000D02*
G54D34*
D03*
X998500Y1194000D02*
G54D34*
D03*
X1023900Y1194000D02*
G54D34*
D03*
X1049300Y1194000D02*
G54D34*
D03*
X1074700Y1194000D02*
G54D34*
D03*
X795300Y1194000D02*
G54D34*
D03*
X1074700Y1194000D02*
G54D28*
D03*
X1049300Y1194000D02*
G54D28*
D03*
X1023900Y1194000D02*
G54D28*
D03*
X998500Y1194000D02*
G54D28*
D03*
X973100Y1194000D02*
G54D28*
D03*
X947700Y1194000D02*
G54D28*
D03*
X922300Y1194000D02*
G54D28*
D03*
X896900Y1194000D02*
G54D28*
D03*
X871500Y1194000D02*
G54D28*
D03*
X846100Y1194000D02*
G54D28*
D03*
X820700Y1194000D02*
G54D28*
D03*
X795300Y1194000D02*
G54D28*
D03*
X1074700Y1342000D02*
G54D28*
D03*
X1049300Y1342000D02*
G54D28*
D03*
X1023900Y1342000D02*
G54D28*
D03*
X998500Y1342000D02*
G54D28*
D03*
X973100Y1342000D02*
G54D28*
D03*
X947700Y1342000D02*
G54D28*
D03*
X922300Y1342000D02*
G54D28*
D03*
X896900Y1342000D02*
G54D28*
D03*
X871500Y1342000D02*
G54D28*
D03*
X846100Y1342000D02*
G54D28*
D03*
X820700Y1342000D02*
G54D28*
D03*
X795300Y1342000D02*
G54D28*
D03*
X820700Y1342000D02*
G54D34*
D03*
X846100Y1342000D02*
G54D34*
D03*
X871500Y1342000D02*
G54D34*
D03*
X896900Y1342000D02*
G54D34*
D03*
X922300Y1342000D02*
G54D34*
D03*
X947700Y1342000D02*
G54D34*
D03*
X973100Y1342000D02*
G54D34*
D03*
X998500Y1342000D02*
G54D34*
D03*
X1023900Y1342000D02*
G54D34*
D03*
X1049300Y1342000D02*
G54D34*
D03*
X1074700Y1342000D02*
G54D34*
D03*
X795300Y1342000D02*
G54D34*
D03*
X795400Y1168200D02*
G54D38*
D03*
X820800Y1168200D02*
G54D38*
D03*
X846200Y1168200D02*
G54D38*
D03*
X871600Y1168200D02*
G54D38*
D03*
X897000Y1168200D02*
G54D38*
D03*
X922400Y1168200D02*
G54D38*
D03*
X947800Y1168200D02*
G54D38*
D03*
X973200Y1168200D02*
G54D38*
D03*
X998600Y1168200D02*
G54D38*
D03*
X1024000Y1168200D02*
G54D38*
D03*
X1049400Y1168200D02*
G54D38*
D03*
X1074800Y1168200D02*
G54D38*
D03*
X795400Y1367200D02*
G54D38*
D03*
X820800Y1367200D02*
G54D38*
D03*
X846200Y1367200D02*
G54D38*
D03*
X871600Y1367200D02*
G54D38*
D03*
X897000Y1367200D02*
G54D38*
D03*
X922400Y1367200D02*
G54D38*
D03*
X947800Y1367200D02*
G54D38*
D03*
X973200Y1367200D02*
G54D38*
D03*
X998600Y1367200D02*
G54D38*
D03*
X1024000Y1367200D02*
G54D38*
D03*
X1049400Y1367200D02*
G54D38*
D03*
X1074800Y1367200D02*
G54D38*
D03*
X331000Y1363000D02*
G54D41*
D03*
X421000Y1363000D02*
G54D41*
D03*
X346000Y1393000D02*
G54D41*
D03*
X376000Y1393000D02*
G54D41*
D03*
X406000Y1393000D02*
G54D41*
D03*
X406000Y1333000D02*
G54D41*
D03*
X376000Y1333000D02*
G54D41*
D03*
X346000Y1333000D02*
G54D41*
D03*
G36*
X57250Y1476750D02*
X84750Y1476750D01*
X84750Y1449250D01*
X57250Y1449250D01*
X57250Y1476750D01*
G37*
X96400Y1463000D02*
G54D42*
D03*
X121800Y1463000D02*
G54D42*
D03*
X147200Y1463000D02*
G54D42*
D03*
X172600Y1463000D02*
G54D42*
D03*
X198000Y1463000D02*
G54D42*
D03*
X223400Y1463000D02*
G54D42*
D03*
X248800Y1463000D02*
G54D42*
D03*
X274200Y1463000D02*
G54D42*
D03*
X299600Y1463000D02*
G54D42*
D03*
X325000Y1463000D02*
G54D42*
D03*
X350400Y1463000D02*
G54D42*
D03*
X375800Y1463000D02*
G54D42*
D03*
X401200Y1463000D02*
G54D42*
D03*
X426600Y1463000D02*
G54D42*
D03*
X452000Y1463000D02*
G54D42*
D03*
X172600Y1263000D02*
G54D42*
D03*
X198000Y1263000D02*
G54D42*
D03*
X223400Y1263000D02*
G54D42*
D03*
X248800Y1263000D02*
G54D42*
D03*
X274200Y1263000D02*
G54D42*
D03*
X299600Y1263000D02*
G54D42*
D03*
X325000Y1263000D02*
G54D42*
D03*
X350400Y1263000D02*
G54D42*
D03*
X375800Y1263000D02*
G54D42*
D03*
X401200Y1263000D02*
G54D42*
D03*
X426600Y1263000D02*
G54D42*
D03*
X452000Y1263000D02*
G54D42*
D03*
X514000Y1417000D02*
G54D43*
D03*
X549000Y1383000D02*
G54D43*
D03*
G54D17*
X415000Y1333000D02*
X415000Y1316000D01*
X415000Y1327000D01*
X452000Y1327000D01*
X513000Y1388000D01*
X513000Y1416000D01*
X514000Y1417000D01*
G54D17*
X172600Y1263000D02*
X172600Y1285600D01*
X191000Y1304000D01*
X366000Y1304000D01*
X375000Y1313000D01*
G54D37*
X327000Y1380000D02*
X327000Y1412000D01*
X337000Y1422000D01*
X411000Y1422000D01*
X452000Y1463000D01*
G54D17*
X1024000Y1168200D02*
X1024000Y1341900D01*
X1023900Y1342000D01*
X705000Y1242000D02*
G54D39*
D03*
X659000Y1206000D02*
G54D39*
D03*
G54D37*
X350400Y1263000D02*
X350400Y1267400D01*
X365000Y1282000D01*
X952000Y1281000D01*
X973000Y1262000D01*
X973100Y1194000D01*
G54D37*
X325000Y1263000D02*
X328000Y1263000D01*
X355000Y1289000D01*
X987000Y1289000D01*
X996000Y1282000D01*
X996000Y1196500D01*
X998500Y1194000D01*
G54D37*
X172600Y1463000D02*
X172600Y1472600D01*
X187000Y1487000D01*
G54D37*
X973100Y1342000D02*
X973100Y1316100D01*
X963000Y1306000D01*
X435000Y1306000D01*
X428000Y1299000D01*
G54D37*
X444000Y1298000D02*
X978000Y1298000D01*
X999000Y1319000D01*
X999000Y1341500D01*
X998500Y1342000D01*
X428000Y1299000D02*
G54D39*
D03*
X444000Y1298000D02*
G54D39*
D03*
G54D37*
X947700Y1194000D02*
X947700Y1263300D01*
X937000Y1274000D01*
X710000Y1274000D01*
X710000Y1274000D02*
G54D39*
D03*
X710000Y1317000D02*
G54D39*
D03*
G54D37*
X187000Y1487000D02*
X579000Y1487000D01*
X709000Y1357000D01*
X709000Y1318000D01*
X710000Y1317000D01*
G54D37*
X922300Y1194000D02*
X922300Y1258700D01*
X916000Y1265000D01*
X689000Y1265000D01*
G54D37*
X896900Y1194000D02*
X896900Y1240100D01*
X881000Y1256000D01*
X697000Y1256000D01*
X697000Y1256000D02*
G54D39*
D03*
X689000Y1265000D02*
G54D39*
D03*
G54D17*
X659000Y1206000D02*
X669000Y1206000D01*
X705000Y1242000D01*
G54D37*
X871500Y1194000D02*
X871500Y1243500D01*
X866000Y1249000D01*
X728000Y1249000D01*
X674000Y1195000D01*
X646000Y1195000D01*
X580000Y1261000D01*
X454000Y1261000D01*
X452000Y1263000D01*
G54D37*
X426600Y1263000D02*
X426600Y1252400D01*
X433000Y1246000D01*
X571000Y1246000D01*
X631000Y1186000D01*
X685000Y1186000D01*
X737000Y1238000D01*
X841000Y1238000D01*
X848000Y1231000D01*
X848000Y1195900D01*
X846100Y1194000D01*
G54D37*
X274200Y1263000D02*
X274200Y1209800D01*
X305000Y1179000D01*
X720000Y1179000D01*
X769000Y1228000D01*
X813000Y1228000D01*
X820000Y1221000D01*
X820000Y1194700D01*
X820700Y1194000D01*
%LPD*%
G54D44*
G36*
X1232350Y1287700D02*
X1232350Y1309450D01*
X1239850Y1309450D01*
X1239850Y1287700D01*
X1232350Y1287700D01*
G37*
G36*
X1239850Y1287700D02*
X1239850Y1265950D01*
X1232350Y1265950D01*
X1232350Y1287700D01*
X1239850Y1287700D01*
G37*
G54D44*
G36*
X1257350Y1432700D02*
X1257350Y1454450D01*
X1264850Y1454450D01*
X1264850Y1432700D01*
X1257350Y1432700D01*
G37*
G36*
X1261100Y1436450D02*
X1282850Y1436450D01*
X1282850Y1428950D01*
X1261100Y1428950D01*
X1261100Y1436450D01*
G37*
G36*
X1264850Y1432700D02*
X1264850Y1410950D01*
X1257350Y1410950D01*
X1257350Y1432700D01*
X1264850Y1432700D01*
G37*
G36*
X1261100Y1428950D02*
X1239350Y1428950D01*
X1239350Y1436450D01*
X1261100Y1436450D01*
X1261100Y1428950D01*
G37*
G54D45*
G36*
X1227600Y1361767D02*
X1238100Y1361767D01*
X1238100Y1356634D01*
X1227600Y1356634D01*
X1227600Y1361767D01*
G37*
G36*
X1225034Y1359200D02*
X1225033Y1369200D01*
X1230166Y1369200D01*
X1230166Y1359200D01*
X1225034Y1359200D01*
G37*
G54D46*
G36*
X1250600Y1361876D02*
X1261100Y1361876D01*
X1261100Y1356524D01*
X1250600Y1356523D01*
X1250600Y1361876D01*
G37*
G36*
X1247924Y1359200D02*
X1247923Y1369200D01*
X1253276Y1369200D01*
X1253276Y1359200D01*
X1247924Y1359200D01*
G37*
G54D47*
G36*
X1305016Y1240300D02*
X1305016Y1273800D01*
X1315184Y1273800D01*
X1315184Y1240300D01*
X1305016Y1240300D01*
G37*
G36*
X1310100Y1245384D02*
X1333850Y1245384D01*
X1333850Y1235217D01*
X1310100Y1235217D01*
X1310100Y1245384D01*
G37*
G54D48*
G36*
X1158600Y1362700D02*
X1158600Y1380200D01*
X1163600Y1380200D01*
X1163600Y1362700D01*
X1158600Y1362700D01*
G37*
G36*
X1161100Y1365200D02*
X1173100Y1365200D01*
X1173100Y1360200D01*
X1161100Y1360200D01*
X1161100Y1365200D01*
G37*
G36*
X1163600Y1362700D02*
X1163600Y1345200D01*
X1158600Y1345200D01*
X1158600Y1362700D01*
X1163600Y1362700D01*
G37*
G36*
X1161100Y1360200D02*
X1149100Y1360200D01*
X1149100Y1365200D01*
X1161100Y1365200D01*
X1161100Y1360200D01*
G37*
G54D48*
G36*
X1188600Y1362700D02*
X1188600Y1380200D01*
X1193600Y1380200D01*
X1193600Y1362700D01*
X1188600Y1362700D01*
G37*
G36*
X1191100Y1365200D02*
X1203100Y1365200D01*
X1203100Y1360200D01*
X1191100Y1360200D01*
X1191100Y1365200D01*
G37*
G36*
X1193600Y1362700D02*
X1193600Y1345200D01*
X1188600Y1345200D01*
X1188600Y1362700D01*
X1193600Y1362700D01*
G37*
G54D48*
G36*
X1278600Y1362700D02*
X1278600Y1380200D01*
X1283600Y1380200D01*
X1283600Y1362700D01*
X1278600Y1362700D01*
G37*
G36*
X1283600Y1362700D02*
X1283600Y1345200D01*
X1278600Y1345200D01*
X1278600Y1362700D01*
X1283600Y1362700D01*
G37*
G36*
X1281100Y1360200D02*
X1269100Y1360200D01*
X1269100Y1365200D01*
X1281100Y1365200D01*
X1281100Y1360200D01*
G37*
G54D48*
G36*
X1308600Y1362700D02*
X1308600Y1380200D01*
X1313600Y1380200D01*
X1313600Y1362700D01*
X1308600Y1362700D01*
G37*
G36*
X1311100Y1365200D02*
X1323100Y1365200D01*
X1323100Y1360200D01*
X1311100Y1360200D01*
X1311100Y1365200D01*
G37*
G36*
X1313600Y1362700D02*
X1313600Y1345200D01*
X1308600Y1345200D01*
X1308600Y1362700D01*
X1313600Y1362700D01*
G37*
G54D49*
G36*
X63050Y1026300D02*
X63050Y1051050D01*
X72550Y1051050D01*
X72550Y1026300D01*
X63050Y1026300D01*
G37*
G36*
X67800Y1031050D02*
X92550Y1031050D01*
X92550Y1021550D01*
X67800Y1021550D01*
X67800Y1031050D01*
G37*
G36*
X72550Y1026300D02*
X72550Y1001550D01*
X63050Y1001550D01*
X63050Y1026300D01*
X72550Y1026300D01*
G37*
G36*
X67800Y1021550D02*
X43050Y1021550D01*
X43050Y1031050D01*
X67800Y1031050D01*
X67800Y1021550D01*
G37*
G54D50*
G36*
X1447400Y1081085D02*
X1431900Y1081085D01*
X1431900Y1085915D01*
X1447400Y1085915D01*
X1447400Y1081085D01*
G37*
G54D47*
G36*
X1467400Y888416D02*
X1431900Y888416D01*
X1431900Y898584D01*
X1467400Y898584D01*
X1467400Y888416D01*
G37*
G54D51*
G36*
X1423836Y1114674D02*
X1423836Y1101174D01*
X1419170Y1101174D01*
X1419170Y1114674D01*
X1423836Y1114674D01*
G37*
G36*
X1421503Y1112341D02*
X1408003Y1112341D01*
X1408003Y1117007D01*
X1421503Y1117007D01*
X1421503Y1112341D01*
G37*
G36*
X1419170Y1114674D02*
X1419170Y1128174D01*
X1423836Y1128174D01*
X1423836Y1114674D01*
X1419170Y1114674D01*
G37*
G36*
X1421503Y1117007D02*
X1435003Y1117007D01*
X1435003Y1112341D01*
X1421503Y1112341D01*
X1421503Y1117007D01*
G37*
G54D48*
G36*
X302700Y970500D02*
X302700Y951000D01*
X297700Y951000D01*
X297700Y970500D01*
X302700Y970500D01*
G37*
G36*
X300200Y968000D02*
X288200Y968000D01*
X288200Y973000D01*
X300200Y973000D01*
X300200Y968000D01*
G37*
G54D48*
G36*
X325100Y973000D02*
X337100Y973000D01*
X337100Y968000D01*
X325100Y968000D01*
X325100Y973000D01*
G37*
G36*
X327600Y970500D02*
X327600Y951000D01*
X322600Y951000D01*
X322600Y970500D01*
X327600Y970500D01*
G37*
G54D48*
G36*
X1132700Y970500D02*
X1132700Y990000D01*
X1137700Y990000D01*
X1137700Y970500D01*
X1132700Y970500D01*
G37*
G36*
X1137700Y970500D02*
X1137700Y951000D01*
X1132700Y951000D01*
X1132700Y970500D01*
X1137700Y970500D01*
G37*
G36*
X1135200Y968000D02*
X1123200Y968000D01*
X1123200Y973000D01*
X1135200Y973000D01*
X1135200Y968000D01*
G37*
G54D48*
G36*
X1157600Y970500D02*
X1157600Y990000D01*
X1162600Y990000D01*
X1162600Y970500D01*
X1157600Y970500D01*
G37*
G36*
X1160100Y973000D02*
X1172100Y973000D01*
X1172100Y968000D01*
X1160100Y968000D01*
X1160100Y973000D01*
G37*
G36*
X1162600Y970500D02*
X1162600Y951000D01*
X1157600Y951000D01*
X1157600Y970500D01*
X1162600Y970500D01*
G37*
G54D48*
G36*
X1132700Y970500D02*
X1132700Y990000D01*
X1137700Y990000D01*
X1137700Y970500D01*
X1132700Y970500D01*
G37*
G36*
X1137700Y970500D02*
X1137700Y951000D01*
X1132700Y951000D01*
X1132700Y970500D01*
X1137700Y970500D01*
G37*
G36*
X1135200Y968000D02*
X1123200Y968000D01*
X1123200Y973000D01*
X1135200Y973000D01*
X1135200Y968000D01*
G37*
G54D48*
G36*
X1157600Y970500D02*
X1157600Y990000D01*
X1162600Y990000D01*
X1162600Y970500D01*
X1157600Y970500D01*
G37*
G36*
X1160100Y973000D02*
X1172100Y973000D01*
X1172100Y968000D01*
X1160100Y968000D01*
X1160100Y973000D01*
G37*
G36*
X1162600Y970500D02*
X1162600Y951000D01*
X1157600Y951000D01*
X1157600Y970500D01*
X1162600Y970500D01*
G37*
G54D52*
G36*
X200884Y1091000D02*
X200884Y1060500D01*
X195716Y1060500D01*
X195716Y1091000D01*
X200884Y1091000D01*
G37*
G36*
X198300Y1088416D02*
X185050Y1088416D01*
X185050Y1093584D01*
X198300Y1093584D01*
X198300Y1088416D01*
G37*
G54D53*
G36*
X1009344Y994153D02*
X1000344Y994153D01*
X1000344Y997153D01*
X1009344Y997153D01*
X1009344Y994153D01*
G37*
G36*
X1007844Y995653D02*
X1007844Y1005403D01*
X1010844Y1005403D01*
X1010844Y995653D01*
X1007844Y995653D01*
G37*
G36*
X1009344Y997153D02*
X1018344Y997153D01*
X1018344Y994153D01*
X1009344Y994153D01*
X1009344Y997153D01*
G37*
G36*
X1010844Y995653D02*
X1010844Y985903D01*
X1007844Y985903D01*
X1007844Y995653D01*
X1010844Y995653D01*
G37*
G54D53*
G36*
X1066344Y994953D02*
X1057344Y994953D01*
X1057344Y997953D01*
X1066344Y997953D01*
X1066344Y994953D01*
G37*
G36*
X1064844Y996453D02*
X1064844Y1006203D01*
X1067844Y1006203D01*
X1067844Y996453D01*
X1064844Y996453D01*
G37*
G36*
X1066344Y997953D02*
X1075344Y997953D01*
X1075344Y994953D01*
X1066344Y994953D01*
X1066344Y997953D01*
G37*
G54D54*
G36*
X156833Y1090000D02*
X156833Y1098000D01*
X159167Y1098000D01*
X159167Y1090000D01*
X156833Y1090000D01*
G37*
G36*
X158000Y1091167D02*
X166000Y1091167D01*
X166000Y1088833D01*
X158000Y1088833D01*
X158000Y1091167D01*
G37*
G36*
X159167Y1090000D02*
X159167Y1082000D01*
X156833Y1082000D01*
X156833Y1090000D01*
X159167Y1090000D01*
G37*
G36*
X158000Y1088833D02*
X150000Y1088833D01*
X150000Y1091167D01*
X158000Y1091167D01*
X158000Y1088833D01*
G37*
G54D55*
G36*
X1142067Y1081034D02*
X1158567Y1081034D01*
X1158567Y1078367D01*
X1142067Y1078368D01*
X1142067Y1081034D01*
G37*
G36*
X1143400Y1079701D02*
X1143400Y1071201D01*
X1140733Y1071201D01*
X1140734Y1079701D01*
X1143400Y1079701D01*
G37*
G54D55*
G36*
X1192066Y1081034D02*
X1208566Y1081035D01*
X1208566Y1078368D01*
X1192066Y1078368D01*
X1192066Y1081034D01*
G37*
G36*
X1193400Y1079701D02*
X1193400Y1071201D01*
X1190733Y1071201D01*
X1190732Y1079701D01*
X1193400Y1079701D01*
G37*
G36*
X1192066Y1078368D02*
X1175566Y1078367D01*
X1175566Y1081034D01*
X1192066Y1081034D01*
X1192066Y1078368D01*
G37*
G54D56*
G36*
X1245000Y1092834D02*
X1255500Y1092834D01*
X1255500Y1089166D01*
X1245000Y1089166D01*
X1245000Y1092834D01*
G37*
G36*
X1246834Y1091000D02*
X1246834Y1081000D01*
X1243166Y1081000D01*
X1243166Y1091000D01*
X1246834Y1091000D01*
G37*
G54D56*
G36*
X1092000Y1102834D02*
X1102500Y1102833D01*
X1102500Y1099166D01*
X1092000Y1099166D01*
X1092000Y1102834D01*
G37*
G36*
X1093834Y1101000D02*
X1093833Y1091000D01*
X1090166Y1091000D01*
X1090166Y1101000D01*
X1093834Y1101000D01*
G37*
G36*
X1092000Y1099166D02*
X1081500Y1099167D01*
X1081500Y1102834D01*
X1092000Y1102834D01*
X1092000Y1099166D01*
G37*
G54D57*
G36*
X818750Y1081000D02*
X818750Y1089250D01*
X821250Y1089250D01*
X821250Y1081000D01*
X818750Y1081000D01*
G37*
G36*
X820000Y1082250D02*
X828250Y1082250D01*
X828250Y1079750D01*
X820000Y1079750D01*
X820000Y1082250D01*
G37*
G36*
X821250Y1081000D02*
X821250Y1072750D01*
X818750Y1072750D01*
X818750Y1081000D01*
X821250Y1081000D01*
G37*
G36*
X820000Y1079750D02*
X811750Y1079750D01*
X811750Y1082250D01*
X820000Y1082250D01*
X820000Y1079750D01*
G37*
G54D57*
G36*
X818750Y1014000D02*
X818750Y1022250D01*
X821250Y1022250D01*
X821250Y1014000D01*
X818750Y1014000D01*
G37*
G36*
X820000Y1015250D02*
X828250Y1015250D01*
X828250Y1012750D01*
X820000Y1012750D01*
X820000Y1015250D01*
G37*
G36*
X821250Y1014000D02*
X821250Y1005750D01*
X818750Y1005750D01*
X818750Y1014000D01*
X821250Y1014000D01*
G37*
G36*
X820000Y1012750D02*
X811750Y1012750D01*
X811750Y1015250D01*
X820000Y1015250D01*
X820000Y1012750D01*
G37*
G54D57*
G36*
X1413750Y876000D02*
X1413750Y884250D01*
X1416250Y884250D01*
X1416250Y876000D01*
X1413750Y876000D01*
G37*
G36*
X1415000Y877250D02*
X1423250Y877250D01*
X1423250Y874750D01*
X1415000Y874750D01*
X1415000Y877250D01*
G37*
G36*
X1416250Y876000D02*
X1416250Y867750D01*
X1413750Y867750D01*
X1413750Y876000D01*
X1416250Y876000D01*
G37*
G36*
X1415000Y874750D02*
X1406750Y874750D01*
X1406750Y877250D01*
X1415000Y877250D01*
X1415000Y874750D01*
G37*
G54D49*
G36*
X64050Y720300D02*
X64050Y745050D01*
X73550Y745050D01*
X73550Y720300D01*
X64050Y720300D01*
G37*
G36*
X68800Y725050D02*
X93550Y725050D01*
X93550Y715550D01*
X68800Y715550D01*
X68800Y725050D01*
G37*
G36*
X73550Y720300D02*
X73550Y695550D01*
X64050Y695550D01*
X64050Y720300D01*
X73550Y720300D01*
G37*
G36*
X68800Y715550D02*
X44050Y715550D01*
X44050Y725050D01*
X68800Y725050D01*
X68800Y715550D01*
G37*
G54D50*
G36*
X1448400Y775085D02*
X1432900Y775085D01*
X1432900Y779915D01*
X1448400Y779915D01*
X1448400Y775085D01*
G37*
G54D47*
G36*
X1468400Y582416D02*
X1432900Y582416D01*
X1432900Y592584D01*
X1468400Y592584D01*
X1468400Y582416D01*
G37*
G54D51*
G36*
X1424836Y808674D02*
X1424836Y795174D01*
X1420170Y795174D01*
X1420170Y808674D01*
X1424836Y808674D01*
G37*
G36*
X1422503Y806341D02*
X1409003Y806341D01*
X1409003Y811007D01*
X1422503Y811007D01*
X1422503Y806341D01*
G37*
G36*
X1420170Y808674D02*
X1420170Y822174D01*
X1424836Y822174D01*
X1424836Y808674D01*
X1420170Y808674D01*
G37*
G36*
X1422503Y811007D02*
X1436003Y811007D01*
X1436003Y806341D01*
X1422503Y806341D01*
X1422503Y811007D01*
G37*
G54D48*
G36*
X303700Y664500D02*
X303700Y645000D01*
X298700Y645000D01*
X298700Y664500D01*
X303700Y664500D01*
G37*
G36*
X301200Y662000D02*
X289200Y662000D01*
X289200Y667000D01*
X301200Y667000D01*
X301200Y662000D01*
G37*
G54D48*
G36*
X326100Y667000D02*
X338100Y667000D01*
X338100Y662000D01*
X326100Y662000D01*
X326100Y667000D01*
G37*
G36*
X328600Y664500D02*
X328600Y645000D01*
X323600Y645000D01*
X323600Y664500D01*
X328600Y664500D01*
G37*
G54D48*
G36*
X1133700Y664500D02*
X1133700Y684000D01*
X1138700Y684000D01*
X1138700Y664500D01*
X1133700Y664500D01*
G37*
G36*
X1138700Y664500D02*
X1138700Y645000D01*
X1133700Y645000D01*
X1133700Y664500D01*
X1138700Y664500D01*
G37*
G36*
X1136200Y662000D02*
X1124200Y662000D01*
X1124200Y667000D01*
X1136200Y667000D01*
X1136200Y662000D01*
G37*
G54D48*
G36*
X1158600Y664500D02*
X1158600Y684000D01*
X1163600Y684000D01*
X1163600Y664500D01*
X1158600Y664500D01*
G37*
G36*
X1161100Y667000D02*
X1173100Y667000D01*
X1173100Y662000D01*
X1161100Y662000D01*
X1161100Y667000D01*
G37*
G36*
X1163600Y664500D02*
X1163600Y645000D01*
X1158600Y645000D01*
X1158600Y664500D01*
X1163600Y664500D01*
G37*
G54D48*
G36*
X1133700Y664500D02*
X1133700Y684000D01*
X1138700Y684000D01*
X1138700Y664500D01*
X1133700Y664500D01*
G37*
G36*
X1138700Y664500D02*
X1138700Y645000D01*
X1133700Y645000D01*
X1133700Y664500D01*
X1138700Y664500D01*
G37*
G36*
X1136200Y662000D02*
X1124200Y662000D01*
X1124200Y667000D01*
X1136200Y667000D01*
X1136200Y662000D01*
G37*
G54D48*
G36*
X1158600Y664500D02*
X1158600Y684000D01*
X1163600Y684000D01*
X1163600Y664500D01*
X1158600Y664500D01*
G37*
G36*
X1161100Y667000D02*
X1173100Y667000D01*
X1173100Y662000D01*
X1161100Y662000D01*
X1161100Y667000D01*
G37*
G36*
X1163600Y664500D02*
X1163600Y645000D01*
X1158600Y645000D01*
X1158600Y664500D01*
X1163600Y664500D01*
G37*
G54D52*
G36*
X201884Y785000D02*
X201884Y754500D01*
X196716Y754500D01*
X196716Y785000D01*
X201884Y785000D01*
G37*
G36*
X199300Y782416D02*
X186050Y782416D01*
X186050Y787584D01*
X199300Y787584D01*
X199300Y782416D01*
G37*
G54D53*
G36*
X1010344Y688153D02*
X1001344Y688153D01*
X1001344Y691153D01*
X1010344Y691153D01*
X1010344Y688153D01*
G37*
G36*
X1008844Y689653D02*
X1008844Y699403D01*
X1011844Y699403D01*
X1011844Y689653D01*
X1008844Y689653D01*
G37*
G36*
X1010344Y691153D02*
X1019344Y691153D01*
X1019344Y688153D01*
X1010344Y688153D01*
X1010344Y691153D01*
G37*
G36*
X1011844Y689653D02*
X1011844Y679903D01*
X1008844Y679903D01*
X1008844Y689653D01*
X1011844Y689653D01*
G37*
G54D53*
G36*
X1067344Y688953D02*
X1058344Y688953D01*
X1058344Y691953D01*
X1067344Y691953D01*
X1067344Y688953D01*
G37*
G36*
X1065844Y690453D02*
X1065844Y700203D01*
X1068844Y700203D01*
X1068844Y690453D01*
X1065844Y690453D01*
G37*
G36*
X1067344Y691953D02*
X1076344Y691953D01*
X1076344Y688953D01*
X1067344Y688953D01*
X1067344Y691953D01*
G37*
G54D54*
G36*
X157833Y784000D02*
X157833Y792000D01*
X160167Y792000D01*
X160167Y784000D01*
X157833Y784000D01*
G37*
G36*
X159000Y785167D02*
X167000Y785167D01*
X167000Y782833D01*
X159000Y782833D01*
X159000Y785167D01*
G37*
G36*
X160167Y784000D02*
X160167Y776000D01*
X157833Y776000D01*
X157833Y784000D01*
X160167Y784000D01*
G37*
G36*
X159000Y782833D02*
X151000Y782833D01*
X151000Y785167D01*
X159000Y785167D01*
X159000Y782833D01*
G37*
G54D55*
G36*
X1143067Y775034D02*
X1159567Y775034D01*
X1159567Y772367D01*
X1143067Y772368D01*
X1143067Y775034D01*
G37*
G36*
X1144400Y773701D02*
X1144400Y765201D01*
X1141733Y765201D01*
X1141734Y773701D01*
X1144400Y773701D01*
G37*
G54D55*
G36*
X1193066Y775034D02*
X1209566Y775035D01*
X1209566Y772368D01*
X1193066Y772368D01*
X1193066Y775034D01*
G37*
G36*
X1194400Y773701D02*
X1194400Y765201D01*
X1191733Y765201D01*
X1191732Y773701D01*
X1194400Y773701D01*
G37*
G36*
X1193066Y772368D02*
X1176566Y772367D01*
X1176566Y775034D01*
X1193066Y775034D01*
X1193066Y772368D01*
G37*
G54D56*
G36*
X1246000Y786834D02*
X1256500Y786834D01*
X1256500Y783166D01*
X1246000Y783166D01*
X1246000Y786834D01*
G37*
G36*
X1247834Y785000D02*
X1247834Y775000D01*
X1244166Y775000D01*
X1244166Y785000D01*
X1247834Y785000D01*
G37*
G54D56*
G36*
X1093000Y796834D02*
X1103500Y796833D01*
X1103500Y793166D01*
X1093000Y793166D01*
X1093000Y796834D01*
G37*
G36*
X1094834Y795000D02*
X1094833Y785000D01*
X1091166Y785000D01*
X1091166Y795000D01*
X1094834Y795000D01*
G37*
G36*
X1093000Y793166D02*
X1082500Y793167D01*
X1082500Y796834D01*
X1093000Y796834D01*
X1093000Y793166D01*
G37*
G54D57*
G36*
X819750Y775000D02*
X819750Y783250D01*
X822250Y783250D01*
X822250Y775000D01*
X819750Y775000D01*
G37*
G36*
X821000Y776250D02*
X829250Y776250D01*
X829250Y773750D01*
X821000Y773750D01*
X821000Y776250D01*
G37*
G36*
X822250Y775000D02*
X822250Y766750D01*
X819750Y766750D01*
X819750Y775000D01*
X822250Y775000D01*
G37*
G36*
X821000Y773750D02*
X812750Y773750D01*
X812750Y776250D01*
X821000Y776250D01*
X821000Y773750D01*
G37*
G54D57*
G36*
X819750Y708000D02*
X819750Y716250D01*
X822250Y716250D01*
X822250Y708000D01*
X819750Y708000D01*
G37*
G36*
X821000Y709250D02*
X829250Y709250D01*
X829250Y706750D01*
X821000Y706750D01*
X821000Y709250D01*
G37*
G36*
X822250Y708000D02*
X822250Y699750D01*
X819750Y699750D01*
X819750Y708000D01*
X822250Y708000D01*
G37*
G36*
X821000Y706750D02*
X812750Y706750D01*
X812750Y709250D01*
X821000Y709250D01*
X821000Y706750D01*
G37*
G54D57*
G36*
X1414750Y570000D02*
X1414750Y578250D01*
X1417250Y578250D01*
X1417250Y570000D01*
X1414750Y570000D01*
G37*
G36*
X1416000Y571250D02*
X1424250Y571250D01*
X1424250Y568750D01*
X1416000Y568750D01*
X1416000Y571250D01*
G37*
G36*
X1417250Y570000D02*
X1417250Y561750D01*
X1414750Y561750D01*
X1414750Y570000D01*
X1417250Y570000D01*
G37*
G36*
X1416000Y568750D02*
X1407750Y568750D01*
X1407750Y571250D01*
X1416000Y571250D01*
X1416000Y568750D01*
G37*
G54D47*
G36*
X1379400Y1256416D02*
X1343900Y1256416D01*
X1343900Y1266584D01*
X1379400Y1266584D01*
X1379400Y1256416D01*
G37*
G54D52*
G36*
X797884Y1194000D02*
X797884Y1163500D01*
X792716Y1163500D01*
X792716Y1194000D01*
X797884Y1194000D01*
G37*
G36*
X795300Y1191416D02*
X782050Y1191416D01*
X782050Y1196584D01*
X795300Y1196584D01*
X795300Y1191416D01*
G37*
G54D52*
G36*
X797884Y1342000D02*
X797884Y1311500D01*
X792716Y1311500D01*
X792716Y1342000D01*
X797884Y1342000D01*
G37*
G36*
X795300Y1339416D02*
X782050Y1339416D01*
X782050Y1344584D01*
X795300Y1344584D01*
X795300Y1339416D01*
G37*
G54D58*
G36*
X421000Y1365166D02*
X432000Y1365166D01*
X432000Y1360834D01*
X421000Y1360834D01*
X421000Y1365166D01*
G37*
G54D59*
G36*
X143950Y1463000D02*
X143950Y1477250D01*
X150450Y1477250D01*
X150450Y1463000D01*
X143950Y1463000D01*
G37*
G36*
X150450Y1463000D02*
X150450Y1448750D01*
X143950Y1448750D01*
X143950Y1463000D01*
X150450Y1463000D01*
G37*
G54D60*
G36*
X547333Y1383000D02*
X547333Y1393500D01*
X550667Y1393500D01*
X550667Y1383000D01*
X547333Y1383000D01*
G37*
G36*
X549000Y1384667D02*
X559500Y1384667D01*
X559500Y1381333D01*
X549000Y1381333D01*
X549000Y1384667D01*
G37*
G36*
X550667Y1383000D02*
X550667Y1372500D01*
X547333Y1372500D01*
X547333Y1383000D01*
X550667Y1383000D01*
G37*
G36*
X549000Y1381333D02*
X538500Y1381333D01*
X538500Y1384667D01*
X549000Y1384667D01*
X549000Y1381333D01*
G37*
X1211100Y1287700D02*
G54D61*
D03*
X1261100Y1287700D02*
G54D61*
D03*
X1236100Y1287700D02*
G54D61*
D03*
X1211100Y1432700D02*
G54D61*
D03*
X1261100Y1432700D02*
G54D61*
D03*
X1209600Y1326200D02*
G54D62*
D03*
X1209600Y1309200D02*
G54D62*
D03*
X1259600Y1326200D02*
G54D62*
D03*
X1259600Y1309200D02*
G54D62*
D03*
X1227600Y1359200D02*
G54D62*
D03*
X1227600Y1340200D02*
G54D63*
D03*
X1250600Y1359200D02*
G54D62*
D03*
X1250600Y1340200D02*
G54D63*
D03*
G54D64*
X1209600Y1309200D02*
X1211100Y1287700D01*
G54D64*
X1259600Y1309200D02*
X1261100Y1287700D01*
G54D64*
X1259600Y1326200D02*
X1267600Y1326200D01*
X1284100Y1309700D01*
X1284100Y1271100D01*
X1257300Y1246300D01*
G54D64*
X1218500Y1232300D02*
X1218500Y1244300D01*
X1192100Y1270700D01*
X1192100Y1314700D01*
X1209600Y1326200D01*
X1208500Y1240300D02*
G54D65*
D03*
X1259300Y1240300D02*
G54D65*
D03*
X1310100Y1240300D02*
G54D65*
D03*
X1157700Y1240300D02*
G54D65*
D03*
G54D66*
X1209600Y1326200D02*
X1226600Y1340200D01*
G54D66*
X1250600Y1340200D02*
X1258600Y1326200D01*
X1259600Y1326200D01*
G54D66*
X1211100Y1432700D02*
X1211100Y1350700D01*
X1159100Y1298700D01*
X1157100Y1293700D01*
X1157700Y1240300D01*
X1161100Y1362700D02*
G54D67*
D03*
X1191100Y1362700D02*
G54D67*
D03*
X1281100Y1362700D02*
G54D67*
D03*
X1311100Y1362700D02*
G54D67*
D03*
X67800Y913200D02*
G54D68*
D03*
X67800Y950900D02*
G54D68*
D03*
X67800Y1026300D02*
G54D69*
D03*
X1342700Y989000D02*
G54D69*
D03*
X1342700Y1026700D02*
G54D69*
D03*
X1393400Y1083500D02*
G54D70*
D03*
X1393400Y1070800D02*
G54D70*
D03*
X1393400Y1058100D02*
G54D70*
D03*
X1393400Y1045400D02*
G54D70*
D03*
X1447400Y1045400D02*
G54D70*
D03*
X1447400Y1058100D02*
G54D70*
D03*
X1447400Y1070800D02*
G54D70*
D03*
X1447400Y1083500D02*
G54D70*
D03*
X1473400Y1115500D02*
G54D71*
D03*
X1366400Y1114500D02*
G54D72*
D03*
G54D64*
X1447400Y1058100D02*
X1417900Y1058100D01*
X1411800Y1064200D01*
X1394100Y1064200D01*
X1393400Y1063500D01*
G54D64*
X1468400Y1107500D02*
X1478400Y1097500D01*
X1478400Y1077500D01*
X1473400Y1072500D01*
G54D64*
X1452400Y1070800D02*
X1470700Y1070800D01*
X1478400Y1078500D01*
G54D64*
X1375400Y1113500D02*
X1375400Y1093500D01*
X1385400Y1083500D01*
X1400400Y1083500D01*
X1467400Y1017500D02*
G54D73*
D03*
X1467400Y975500D02*
G54D73*
D03*
X1467400Y934500D02*
G54D73*
D03*
X1467400Y893500D02*
G54D73*
D03*
X1421503Y1114674D02*
G54D74*
D03*
X300200Y970500D02*
G54D75*
D03*
X325100Y970500D02*
G54D75*
D03*
X1135200Y970500D02*
G54D75*
D03*
X1160100Y970500D02*
G54D75*
D03*
G54D64*
X302400Y981500D02*
X325400Y981500D01*
G54D64*
X303400Y959500D02*
X325400Y959500D01*
X1135200Y970500D02*
G54D75*
D03*
X1160100Y970500D02*
G54D75*
D03*
G54D64*
X1137400Y981500D02*
X1160400Y981500D01*
G54D64*
X1138400Y959500D02*
X1160400Y959500D01*
X477700Y1091000D02*
G54D76*
D03*
X452300Y1091000D02*
G54D76*
D03*
X426900Y1091000D02*
G54D76*
D03*
X401500Y1091000D02*
G54D76*
D03*
X376100Y1091000D02*
G54D76*
D03*
X350700Y1091000D02*
G54D76*
D03*
X325300Y1091000D02*
G54D76*
D03*
X299900Y1091000D02*
G54D76*
D03*
X274500Y1091000D02*
G54D76*
D03*
X249100Y1091000D02*
G54D76*
D03*
X223700Y1091000D02*
G54D76*
D03*
X198300Y1091000D02*
G54D76*
D03*
G54D66*
X477700Y1091000D02*
X505900Y1091000D01*
X539700Y1124800D01*
X1075400Y1124800D01*
X1082600Y1117600D01*
G54D66*
X452300Y1091000D02*
X452300Y1061200D01*
X463300Y1050200D01*
X1319200Y1050200D01*
X1342700Y1026700D01*
G54D66*
X425200Y1080000D02*
X425200Y1054000D01*
X445900Y1034300D01*
X1197600Y1035300D01*
X1243000Y988900D01*
X1342600Y988900D01*
X1342700Y989000D01*
G54D66*
X1393400Y1045400D02*
X1393400Y1029700D01*
X1380700Y1017000D01*
X1380700Y974500D01*
X1358200Y952000D01*
G54D66*
X379000Y1013000D02*
X379100Y996700D01*
X405200Y967600D01*
X938900Y967600D01*
X984200Y927100D01*
X1302000Y928100D01*
G54D66*
X1440000Y1045500D02*
X1432400Y1045500D01*
X1414400Y1027500D01*
G54D66*
X1448500Y969800D02*
X1446500Y969800D01*
X1369000Y896400D01*
X963400Y895800D01*
X921000Y925200D01*
X401000Y927000D01*
G54D66*
X1467400Y934500D02*
X1437800Y934500D01*
X1378800Y880300D01*
X928800Y879600D01*
X904100Y906800D01*
X291000Y905800D01*
X276000Y917000D01*
X1009344Y970953D02*
G54D77*
D03*
X1009344Y995653D02*
G54D77*
D03*
X1066344Y971753D02*
G54D77*
D03*
X1066344Y996453D02*
G54D77*
D03*
X1272800Y952000D02*
G54D78*
D03*
X1255800Y952000D02*
G54D78*
D03*
X1319000Y928100D02*
G54D78*
D03*
X1302000Y928100D02*
G54D78*
D03*
G54D66*
X1272800Y952000D02*
X1358200Y952000D01*
X1380700Y974500D01*
G54D66*
X1414400Y1027500D02*
X1402800Y1015900D01*
X1402800Y967600D01*
X1354400Y928100D01*
G54D66*
X1319000Y928100D02*
X1354400Y928100D01*
X1066000Y927000D02*
G54D79*
D03*
X1066000Y955000D02*
G54D79*
D03*
G54D66*
X1066000Y955000D02*
X1066000Y971409D01*
X1066344Y971753D01*
G54D66*
X1009344Y970953D02*
X1009344Y943344D01*
X1009000Y943000D01*
G54D66*
X401500Y1007000D02*
X401500Y992500D01*
X413000Y981000D01*
X504000Y981000D01*
X515000Y993000D01*
G54D66*
X1255800Y952000D02*
X1198400Y951900D01*
X1183500Y941500D01*
X995700Y942600D01*
X937600Y992300D01*
X515000Y993000D01*
G54D66*
X1467400Y1017500D02*
X1463900Y1014000D01*
X1426300Y1014000D01*
X1419200Y1006900D01*
X1419200Y963100D01*
X1359300Y911600D01*
X973900Y911100D01*
X929900Y946200D01*
X404000Y946200D01*
X356400Y994800D01*
G54D80*
X326300Y1008000D02*
X325300Y1007000D01*
X325300Y1002700D01*
X401000Y927000D01*
G54D80*
X299900Y1007000D02*
X299900Y1001900D01*
X276000Y978000D01*
X276000Y917000D01*
X21000Y1070000D02*
G54D81*
D03*
X21000Y992000D02*
G54D81*
D03*
X21000Y943000D02*
G54D81*
D03*
G54D80*
X223700Y1091000D02*
X223700Y1057700D01*
X217000Y1051000D01*
X111000Y1051000D01*
X92000Y1070000D01*
X21000Y1070000D01*
G54D80*
X21000Y992000D02*
X137000Y992000D01*
X158000Y971000D01*
X229000Y971000D01*
X246000Y988000D01*
X249100Y1007000D01*
G54D80*
X274500Y1007000D02*
X274500Y996500D01*
X237000Y959000D01*
X141000Y959000D01*
X125000Y975000D01*
X53000Y975000D01*
X21000Y943000D01*
X158000Y1090000D02*
G54D79*
D03*
X126000Y1011000D02*
G54D62*
D03*
X126000Y1028000D02*
G54D62*
D03*
X153000Y1011000D02*
G54D62*
D03*
X153000Y1028000D02*
G54D62*
D03*
G54D80*
X126000Y1011000D02*
X126000Y992000D01*
X141000Y959000D02*
G54D79*
D03*
X170000Y991000D02*
G54D79*
D03*
G54D80*
X153000Y1011000D02*
X153000Y1008000D01*
X170000Y991000D01*
X1142066Y1117801D02*
G54D82*
D03*
X1142066Y1105101D02*
G54D82*
D03*
X1142066Y1092401D02*
G54D82*
D03*
X1142067Y1079701D02*
G54D82*
D03*
X1192066Y1079701D02*
G54D82*
D03*
X1192066Y1092401D02*
G54D82*
D03*
X1192066Y1105101D02*
G54D82*
D03*
X1192066Y1117801D02*
G54D82*
D03*
X1222000Y1091000D02*
G54D62*
D03*
X1222000Y1108000D02*
G54D62*
D03*
X1245000Y1091000D02*
G54D62*
D03*
X1245000Y1108000D02*
G54D62*
D03*
G54D80*
X1197000Y1105000D02*
X1219000Y1105000D01*
X1222000Y1108000D01*
G54D80*
X1222000Y1091000D02*
X1199000Y1091000D01*
X1198000Y1092000D01*
G54D80*
X1201000Y1118000D02*
X1205000Y1118000D01*
X1212000Y1125000D01*
X1239000Y1125000D01*
X1244000Y1120000D01*
X1244000Y1109000D01*
X1245000Y1108000D01*
G54D59*
X1245000Y1108000D02*
X1314000Y1108000D01*
X1336000Y1086000D01*
X1354000Y1086000D01*
X1375000Y1065000D01*
X1391900Y1065000D01*
X1393400Y1063500D01*
X1092000Y1118000D02*
G54D62*
D03*
X1092000Y1101000D02*
G54D62*
D03*
X1115000Y1101000D02*
G54D62*
D03*
X1115000Y1118000D02*
G54D62*
D03*
G54D66*
X1146000Y1117000D02*
X1158000Y1117000D01*
X1164000Y1111000D01*
X1164000Y1095000D01*
X1163000Y1094000D01*
X1152000Y1094000D01*
X1150000Y1092000D01*
G54D80*
X1138000Y1106000D02*
X1127000Y1106000D01*
X1122000Y1101000D01*
X1115000Y1101000D01*
G54D66*
X1115000Y1118000D02*
X1138000Y1118000D01*
G54D66*
X1082600Y1117600D02*
X1114600Y1117600D01*
X1115000Y1118000D01*
G54D66*
X401500Y992500D02*
X401500Y1082500D01*
X402000Y1083000D01*
G54D66*
X379000Y1013000D02*
X379000Y1075000D01*
X377000Y1077000D01*
G54D66*
X356400Y994800D02*
X356400Y1053600D01*
X352000Y1058000D01*
X352000Y1080000D01*
G54D66*
X325300Y1007000D02*
X325300Y1091000D01*
G54D66*
X299900Y1007000D02*
X299900Y1091000D01*
G54D66*
X274500Y1007000D02*
X274500Y1091000D01*
G54D66*
X249100Y1007000D02*
X249100Y1091000D01*
G54D66*
X126000Y1028000D02*
X153000Y1028000D01*
X239000Y1058000D02*
G54D79*
D03*
G54D66*
X153000Y1028000D02*
X208000Y1028000D01*
X239000Y1058000D01*
X424200Y1058000D02*
G54D79*
D03*
X223700Y1091000D02*
G54D79*
D03*
X249100Y1091000D02*
G54D79*
D03*
X274500Y1091000D02*
G54D79*
D03*
X299900Y1091000D02*
G54D79*
D03*
X325300Y1091000D02*
G54D79*
D03*
X350700Y1091000D02*
G54D79*
D03*
X376100Y1091000D02*
G54D79*
D03*
X401500Y1091000D02*
G54D79*
D03*
X426900Y1091000D02*
G54D79*
D03*
X452300Y1091000D02*
G54D79*
D03*
X477700Y1091000D02*
G54D79*
D03*
X198300Y1091000D02*
G54D79*
D03*
X198400Y1118200D02*
G54D83*
D03*
X223800Y1118200D02*
G54D83*
D03*
X249200Y1118200D02*
G54D83*
D03*
X274600Y1118200D02*
G54D83*
D03*
X300000Y1118200D02*
G54D83*
D03*
X325400Y1118200D02*
G54D83*
D03*
X350800Y1118200D02*
G54D83*
D03*
X376200Y1118200D02*
G54D83*
D03*
X401600Y1118200D02*
G54D83*
D03*
X427000Y1118200D02*
G54D83*
D03*
X452400Y1118200D02*
G54D83*
D03*
X477800Y1118200D02*
G54D83*
D03*
X1379400Y1385500D02*
G54D84*
D03*
X1259300Y1240300D02*
G54D84*
D03*
X1208500Y1240300D02*
G54D84*
D03*
X820000Y1081000D02*
G54D84*
D03*
X820000Y1014000D02*
G54D84*
D03*
X1415000Y876000D02*
G54D84*
D03*
X68800Y607200D02*
G54D68*
D03*
X68800Y644900D02*
G54D68*
D03*
X68800Y720300D02*
G54D69*
D03*
X1343700Y683000D02*
G54D69*
D03*
X1343700Y720700D02*
G54D69*
D03*
X1394400Y777500D02*
G54D70*
D03*
X1394400Y764800D02*
G54D70*
D03*
X1394400Y752100D02*
G54D70*
D03*
X1394400Y739400D02*
G54D70*
D03*
X1448400Y739400D02*
G54D70*
D03*
X1448400Y752100D02*
G54D70*
D03*
X1448400Y764800D02*
G54D70*
D03*
X1448400Y777500D02*
G54D70*
D03*
X1474400Y809500D02*
G54D71*
D03*
X1367400Y808500D02*
G54D72*
D03*
G54D64*
X1448400Y752100D02*
X1418900Y752100D01*
X1412800Y758200D01*
X1395100Y758200D01*
X1394400Y757500D01*
G54D64*
X1469400Y801500D02*
X1479400Y791500D01*
X1479400Y771500D01*
X1474400Y766500D01*
G54D64*
X1453400Y764800D02*
X1471700Y764800D01*
X1479400Y772500D01*
G54D64*
X1376400Y807500D02*
X1376400Y787500D01*
X1386400Y777500D01*
X1401400Y777500D01*
X1468400Y711500D02*
G54D73*
D03*
X1468400Y669500D02*
G54D73*
D03*
X1468400Y628500D02*
G54D73*
D03*
X1468400Y587500D02*
G54D73*
D03*
X1422503Y808674D02*
G54D74*
D03*
X301200Y664500D02*
G54D75*
D03*
X326100Y664500D02*
G54D75*
D03*
X1136200Y664500D02*
G54D75*
D03*
X1161100Y664500D02*
G54D75*
D03*
G54D64*
X303400Y675500D02*
X326400Y675500D01*
G54D64*
X304400Y653500D02*
X326400Y653500D01*
X1136200Y664500D02*
G54D75*
D03*
X1161100Y664500D02*
G54D75*
D03*
G54D64*
X1138400Y675500D02*
X1161400Y675500D01*
G54D64*
X1139400Y653500D02*
X1161400Y653500D01*
X478700Y785000D02*
G54D76*
D03*
X453300Y785000D02*
G54D76*
D03*
X427900Y785000D02*
G54D76*
D03*
X402500Y785000D02*
G54D76*
D03*
X377100Y785000D02*
G54D76*
D03*
X351700Y785000D02*
G54D76*
D03*
X326300Y785000D02*
G54D76*
D03*
X300900Y785000D02*
G54D76*
D03*
X275500Y785000D02*
G54D76*
D03*
X250100Y785000D02*
G54D76*
D03*
X224700Y785000D02*
G54D76*
D03*
X199300Y785000D02*
G54D76*
D03*
G54D66*
X478700Y785000D02*
X506900Y785000D01*
X540700Y818800D01*
X1076400Y818800D01*
X1093000Y812000D01*
G54D66*
X453300Y785000D02*
X453300Y755200D01*
X464300Y744200D01*
X1320200Y744200D01*
X1343700Y720700D01*
G54D66*
X426200Y774000D02*
X426200Y748000D01*
X446900Y728300D01*
X1198600Y729300D01*
X1244000Y682900D01*
X1343600Y682900D01*
X1343700Y683000D01*
G54D66*
X1394400Y739400D02*
X1394400Y723700D01*
X1381700Y711000D01*
X1381700Y668500D01*
X1359200Y646000D01*
G54D66*
X380000Y707000D02*
X380100Y690700D01*
X406200Y661600D01*
X939900Y661600D01*
X985200Y621100D01*
X1303000Y622100D01*
G54D66*
X1441000Y739500D02*
X1433400Y739500D01*
X1415400Y721500D01*
G54D66*
X1449500Y663800D02*
X1447500Y663800D01*
X1370000Y590400D01*
X964400Y589800D01*
X922000Y619200D01*
X402000Y621000D01*
G54D66*
X1468400Y628500D02*
X1438800Y628500D01*
X1379800Y574300D01*
X929800Y573600D01*
X905100Y600800D01*
X292000Y599800D01*
X277000Y611000D01*
X1010344Y664953D02*
G54D77*
D03*
X1010344Y689653D02*
G54D77*
D03*
X1067344Y665753D02*
G54D77*
D03*
X1067344Y690453D02*
G54D77*
D03*
X1273800Y646000D02*
G54D78*
D03*
X1256800Y646000D02*
G54D78*
D03*
X1320000Y622100D02*
G54D78*
D03*
X1303000Y622100D02*
G54D78*
D03*
G54D66*
X1273800Y646000D02*
X1359200Y646000D01*
X1381700Y668500D01*
G54D66*
X1415400Y721500D02*
X1403800Y709900D01*
X1403800Y661600D01*
X1355400Y622100D01*
G54D66*
X1320000Y622100D02*
X1355400Y622100D01*
X1067000Y621000D02*
G54D79*
D03*
X1067000Y649000D02*
G54D79*
D03*
G54D66*
X1067000Y649000D02*
X1067000Y665409D01*
X1067344Y665753D01*
G54D66*
X1010344Y664953D02*
X1010344Y637344D01*
X1010000Y637000D01*
G54D66*
X402500Y701000D02*
X402500Y686500D01*
X414000Y675000D01*
X505000Y675000D01*
X516000Y687000D01*
G54D66*
X1256800Y646000D02*
X1199400Y645900D01*
X1184500Y635500D01*
X996700Y636600D01*
X938600Y686300D01*
X516000Y687000D01*
G54D66*
X1468400Y711500D02*
X1464900Y708000D01*
X1427300Y708000D01*
X1420200Y700900D01*
X1420200Y657100D01*
X1360300Y605600D01*
X974900Y605100D01*
X930900Y640200D01*
X405000Y640200D01*
X357400Y688800D01*
G54D80*
X327300Y702000D02*
X326300Y701000D01*
X326300Y696700D01*
X402000Y621000D01*
G54D80*
X300900Y701000D02*
X300900Y695900D01*
X277000Y672000D01*
X277000Y611000D01*
X22000Y764000D02*
G54D81*
D03*
X22000Y686000D02*
G54D81*
D03*
X22000Y637000D02*
G54D81*
D03*
G54D80*
X224700Y785000D02*
X224700Y751700D01*
X218000Y745000D01*
X112000Y745000D01*
X93000Y764000D01*
X22000Y764000D01*
G54D80*
X22000Y686000D02*
X138000Y686000D01*
X159000Y665000D01*
X230000Y665000D01*
X247000Y682000D01*
X250100Y701000D01*
G54D80*
X275500Y701000D02*
X275500Y690500D01*
X238000Y653000D01*
X142000Y653000D01*
X126000Y669000D01*
X54000Y669000D01*
X22000Y637000D01*
X159000Y784000D02*
G54D79*
D03*
X127000Y705000D02*
G54D62*
D03*
X127000Y722000D02*
G54D62*
D03*
X154000Y705000D02*
G54D62*
D03*
X154000Y722000D02*
G54D62*
D03*
G54D80*
X127000Y705000D02*
X127000Y686000D01*
X142000Y653000D02*
G54D79*
D03*
X171000Y685000D02*
G54D79*
D03*
G54D80*
X154000Y705000D02*
X154000Y702000D01*
X171000Y685000D01*
X1143066Y811801D02*
G54D82*
D03*
X1143066Y799101D02*
G54D82*
D03*
X1143066Y786401D02*
G54D82*
D03*
X1143067Y773701D02*
G54D82*
D03*
X1193066Y773701D02*
G54D82*
D03*
X1193066Y786401D02*
G54D82*
D03*
X1193066Y799101D02*
G54D82*
D03*
X1193066Y811801D02*
G54D82*
D03*
X1223000Y785000D02*
G54D62*
D03*
X1223000Y802000D02*
G54D62*
D03*
X1246000Y785000D02*
G54D62*
D03*
X1246000Y802000D02*
G54D62*
D03*
G54D80*
X1198000Y799000D02*
X1220000Y799000D01*
X1223000Y802000D01*
G54D80*
X1223000Y785000D02*
X1200000Y785000D01*
X1199000Y786000D01*
G54D59*
X1246000Y802000D02*
X1315000Y802000D01*
X1337000Y780000D01*
X1355000Y780000D01*
X1376000Y759000D01*
X1392900Y759000D01*
X1394400Y757500D01*
X1093000Y812000D02*
G54D62*
D03*
X1093000Y795000D02*
G54D62*
D03*
X1114000Y794000D02*
G54D62*
D03*
X1114000Y811000D02*
G54D62*
D03*
G54D66*
X1147000Y811000D02*
X1159000Y811000D01*
X1165000Y805000D01*
X1165000Y789000D01*
X1164000Y788000D01*
X1153000Y788000D01*
X1151000Y786000D01*
G54D80*
X1139000Y800000D02*
X1128000Y800000D01*
X1123000Y795000D01*
X1116000Y795000D01*
G54D66*
X402500Y686500D02*
X402500Y776500D01*
X403000Y777000D01*
G54D66*
X380000Y707000D02*
X380000Y769000D01*
X378000Y771000D01*
G54D66*
X357400Y688800D02*
X357400Y747600D01*
X353000Y752000D01*
X353000Y774000D01*
G54D66*
X326300Y701000D02*
X326300Y785000D01*
G54D66*
X300900Y701000D02*
X300900Y785000D01*
G54D66*
X275500Y701000D02*
X275500Y785000D01*
G54D66*
X250100Y701000D02*
X250100Y785000D01*
G54D66*
X127000Y722000D02*
X154000Y722000D01*
X240000Y752000D02*
G54D79*
D03*
G54D66*
X154000Y722000D02*
X209000Y722000D01*
X240000Y752000D01*
X425200Y752000D02*
G54D79*
D03*
X224700Y785000D02*
G54D79*
D03*
X250100Y785000D02*
G54D79*
D03*
X275500Y785000D02*
G54D79*
D03*
X300900Y785000D02*
G54D79*
D03*
X326300Y785000D02*
G54D79*
D03*
X351700Y785000D02*
G54D79*
D03*
X377100Y785000D02*
G54D79*
D03*
X402500Y785000D02*
G54D79*
D03*
X427900Y785000D02*
G54D79*
D03*
X453300Y785000D02*
G54D79*
D03*
X478700Y785000D02*
G54D79*
D03*
X199300Y785000D02*
G54D79*
D03*
X821000Y775000D02*
G54D84*
D03*
X821000Y708000D02*
G54D84*
D03*
X1416000Y570000D02*
G54D84*
D03*
X199400Y811200D02*
G54D83*
D03*
X224800Y811200D02*
G54D83*
D03*
X250200Y811200D02*
G54D83*
D03*
X275600Y811200D02*
G54D83*
D03*
X301000Y811200D02*
G54D83*
D03*
X326400Y811200D02*
G54D83*
D03*
X351800Y811200D02*
G54D83*
D03*
X377200Y811200D02*
G54D83*
D03*
X402600Y811200D02*
G54D83*
D03*
X428000Y811200D02*
G54D83*
D03*
X453400Y811200D02*
G54D83*
D03*
X478800Y811200D02*
G54D83*
D03*
X1379400Y1385500D02*
G54D73*
D03*
X1379400Y1343500D02*
G54D73*
D03*
X1379400Y1302500D02*
G54D73*
D03*
X1379400Y1261500D02*
G54D73*
D03*
X1379400Y1343500D02*
G54D84*
D03*
X1379400Y1302500D02*
G54D84*
D03*
X1379400Y1261500D02*
G54D84*
D03*
G54D80*
X1211100Y1432700D02*
X1211100Y1415900D01*
X1234000Y1393000D01*
X1371900Y1393000D01*
X1379400Y1385500D01*
G54D80*
X1284100Y1271100D02*
X1285100Y1271100D01*
X1310000Y1296000D01*
X1360000Y1296000D01*
X1361000Y1297000D01*
G54D66*
X1093000Y812000D02*
X1125000Y812000D01*
X1143066Y811801D01*
G54D80*
X1203000Y812000D02*
X1207000Y812000D01*
X1214000Y819000D01*
X1241000Y819000D01*
X1246000Y814000D01*
X1246000Y803000D01*
X1247000Y802000D01*
X820700Y1194000D02*
G54D79*
D03*
X846100Y1194000D02*
G54D79*
D03*
X871500Y1194000D02*
G54D79*
D03*
X896900Y1194000D02*
G54D79*
D03*
X922300Y1194000D02*
G54D79*
D03*
X947700Y1194000D02*
G54D79*
D03*
X973100Y1194000D02*
G54D79*
D03*
X998500Y1194000D02*
G54D79*
D03*
X1023900Y1194000D02*
G54D79*
D03*
X1049300Y1194000D02*
G54D79*
D03*
X1074700Y1194000D02*
G54D79*
D03*
X795300Y1194000D02*
G54D79*
D03*
X1074700Y1194000D02*
G54D76*
D03*
X1049300Y1194000D02*
G54D76*
D03*
X1023900Y1194000D02*
G54D76*
D03*
X998500Y1194000D02*
G54D76*
D03*
X973100Y1194000D02*
G54D76*
D03*
X947700Y1194000D02*
G54D76*
D03*
X922300Y1194000D02*
G54D76*
D03*
X896900Y1194000D02*
G54D76*
D03*
X871500Y1194000D02*
G54D76*
D03*
X846100Y1194000D02*
G54D76*
D03*
X820700Y1194000D02*
G54D76*
D03*
X795300Y1194000D02*
G54D76*
D03*
X1074700Y1342000D02*
G54D76*
D03*
X1049300Y1342000D02*
G54D76*
D03*
X1023900Y1342000D02*
G54D76*
D03*
X998500Y1342000D02*
G54D76*
D03*
X973100Y1342000D02*
G54D76*
D03*
X947700Y1342000D02*
G54D76*
D03*
X922300Y1342000D02*
G54D76*
D03*
X896900Y1342000D02*
G54D76*
D03*
X871500Y1342000D02*
G54D76*
D03*
X846100Y1342000D02*
G54D76*
D03*
X820700Y1342000D02*
G54D76*
D03*
X795300Y1342000D02*
G54D76*
D03*
X820700Y1342000D02*
G54D79*
D03*
X846100Y1342000D02*
G54D79*
D03*
X871500Y1342000D02*
G54D79*
D03*
X896900Y1342000D02*
G54D79*
D03*
X922300Y1342000D02*
G54D79*
D03*
X947700Y1342000D02*
G54D79*
D03*
X973100Y1342000D02*
G54D79*
D03*
X998500Y1342000D02*
G54D79*
D03*
X1023900Y1342000D02*
G54D79*
D03*
X1049300Y1342000D02*
G54D79*
D03*
X1074700Y1342000D02*
G54D79*
D03*
X795300Y1342000D02*
G54D79*
D03*
X795400Y1168200D02*
G54D83*
D03*
X820800Y1168200D02*
G54D83*
D03*
X846200Y1168200D02*
G54D83*
D03*
X871600Y1168200D02*
G54D83*
D03*
X897000Y1168200D02*
G54D83*
D03*
X922400Y1168200D02*
G54D83*
D03*
X947800Y1168200D02*
G54D83*
D03*
X973200Y1168200D02*
G54D83*
D03*
X998600Y1168200D02*
G54D83*
D03*
X1024000Y1168200D02*
G54D83*
D03*
X1049400Y1168200D02*
G54D83*
D03*
X1074800Y1168200D02*
G54D83*
D03*
X795400Y1367200D02*
G54D83*
D03*
X820800Y1367200D02*
G54D83*
D03*
X846200Y1367200D02*
G54D83*
D03*
X871600Y1367200D02*
G54D83*
D03*
X897000Y1367200D02*
G54D83*
D03*
X922400Y1367200D02*
G54D83*
D03*
X947800Y1367200D02*
G54D83*
D03*
X973200Y1367200D02*
G54D83*
D03*
X998600Y1367200D02*
G54D83*
D03*
X1024000Y1367200D02*
G54D83*
D03*
X1049400Y1367200D02*
G54D83*
D03*
X1074800Y1367200D02*
G54D83*
D03*
X331000Y1363000D02*
G54D85*
D03*
X421000Y1363000D02*
G54D85*
D03*
X346000Y1393000D02*
G54D85*
D03*
X376000Y1393000D02*
G54D85*
D03*
X406000Y1393000D02*
G54D85*
D03*
X406000Y1333000D02*
G54D85*
D03*
X376000Y1333000D02*
G54D85*
D03*
X346000Y1333000D02*
G54D85*
D03*
G36*
X61250Y1472750D02*
X80750Y1472750D01*
X80750Y1453250D01*
X61250Y1453250D01*
X61250Y1472750D01*
G37*
X96400Y1463000D02*
G54D86*
D03*
X121800Y1463000D02*
G54D86*
D03*
X147200Y1463000D02*
G54D86*
D03*
X172600Y1463000D02*
G54D86*
D03*
X198000Y1463000D02*
G54D86*
D03*
X223400Y1463000D02*
G54D86*
D03*
X248800Y1463000D02*
G54D86*
D03*
X274200Y1463000D02*
G54D86*
D03*
X299600Y1463000D02*
G54D86*
D03*
X325000Y1463000D02*
G54D86*
D03*
X350400Y1463000D02*
G54D86*
D03*
X375800Y1463000D02*
G54D86*
D03*
X401200Y1463000D02*
G54D86*
D03*
X426600Y1463000D02*
G54D86*
D03*
X452000Y1463000D02*
G54D86*
D03*
X172600Y1263000D02*
G54D86*
D03*
X198000Y1263000D02*
G54D86*
D03*
X223400Y1263000D02*
G54D86*
D03*
X248800Y1263000D02*
G54D86*
D03*
X274200Y1263000D02*
G54D86*
D03*
X299600Y1263000D02*
G54D86*
D03*
X325000Y1263000D02*
G54D86*
D03*
X350400Y1263000D02*
G54D86*
D03*
X375800Y1263000D02*
G54D86*
D03*
X401200Y1263000D02*
G54D86*
D03*
X426600Y1263000D02*
G54D86*
D03*
X452000Y1263000D02*
G54D86*
D03*
X514000Y1417000D02*
G54D87*
D03*
X549000Y1383000D02*
G54D87*
D03*
G54D66*
X415000Y1333000D02*
X415000Y1316000D01*
X415000Y1327000D01*
X452000Y1327000D01*
X513000Y1388000D01*
X513000Y1416000D01*
X514000Y1417000D01*
G54D66*
X172600Y1263000D02*
X172600Y1285600D01*
X191000Y1304000D01*
X366000Y1304000D01*
X375000Y1313000D01*
G54D80*
X327000Y1380000D02*
X327000Y1412000D01*
X337000Y1422000D01*
X411000Y1422000D01*
X452000Y1463000D01*
G54D66*
X1024000Y1168200D02*
X1024000Y1341900D01*
X1023900Y1342000D01*
X705000Y1242000D02*
G54D84*
D03*
X659000Y1206000D02*
G54D84*
D03*
G54D80*
X350400Y1263000D02*
X350400Y1267400D01*
X365000Y1282000D01*
X952000Y1281000D01*
X973000Y1262000D01*
X973100Y1194000D01*
G54D80*
X325000Y1263000D02*
X328000Y1263000D01*
X355000Y1289000D01*
X987000Y1289000D01*
X996000Y1282000D01*
X996000Y1196500D01*
X998500Y1194000D01*
G54D80*
X172600Y1463000D02*
X172600Y1472600D01*
X187000Y1487000D01*
G54D80*
X973100Y1342000D02*
X973100Y1316100D01*
X963000Y1306000D01*
X435000Y1306000D01*
X428000Y1299000D01*
G54D80*
X444000Y1298000D02*
X978000Y1298000D01*
X999000Y1319000D01*
X999000Y1341500D01*
X998500Y1342000D01*
X428000Y1299000D02*
G54D84*
D03*
X444000Y1298000D02*
G54D84*
D03*
G54D80*
X947700Y1194000D02*
X947700Y1263300D01*
X937000Y1274000D01*
X710000Y1274000D01*
X710000Y1274000D02*
G54D84*
D03*
X710000Y1317000D02*
G54D84*
D03*
G54D80*
X187000Y1487000D02*
X579000Y1487000D01*
X709000Y1357000D01*
X709000Y1318000D01*
X710000Y1317000D01*
G54D80*
X922300Y1194000D02*
X922300Y1258700D01*
X916000Y1265000D01*
X689000Y1265000D01*
G54D80*
X896900Y1194000D02*
X896900Y1240100D01*
X881000Y1256000D01*
X697000Y1256000D01*
X697000Y1256000D02*
G54D84*
D03*
X689000Y1265000D02*
G54D84*
D03*
G54D66*
X659000Y1206000D02*
X669000Y1206000D01*
X705000Y1242000D01*
G54D80*
X871500Y1194000D02*
X871500Y1243500D01*
X866000Y1249000D01*
X728000Y1249000D01*
X674000Y1195000D01*
X646000Y1195000D01*
X580000Y1261000D01*
X454000Y1261000D01*
X452000Y1263000D01*
G54D80*
X426600Y1263000D02*
X426600Y1252400D01*
X433000Y1246000D01*
X571000Y1246000D01*
X631000Y1186000D01*
X685000Y1186000D01*
X737000Y1238000D01*
X841000Y1238000D01*
X848000Y1231000D01*
X848000Y1195900D01*
X846100Y1194000D01*
G54D80*
X274200Y1263000D02*
X274200Y1209800D01*
X305000Y1179000D01*
X720000Y1179000D01*
X769000Y1228000D01*
X813000Y1228000D01*
X820000Y1221000D01*
X820000Y1194700D01*
X820700Y1194000D01*
M02*
