%FSLAX34Y34*%
%MOMM*%
%LNSOLDERMASK_TOP*%
G71*
G01*
%ADD10C,2.850*%
%ADD11R,1.400X1.300*%
%ADD12R,1.400X1.650*%
%ADD13R,3.250X5.200*%
%ADD14R,1.700X2.800*%
%ADD15C,2.750*%
%ADD16C,3.450*%
%ADD17R,2.400X0.900*%
%ADD18R,4.000X4.200*%
%ADD19R,4.000X4.250*%
%ADD20R,5.200X3.250*%
%ADD21C,2.000*%
%ADD22R,1.700X3.200*%
%ADD23R,1.750X5.200*%
%ADD24R,1.100X1.250*%
%ADD25R,1.300X1.400*%
%ADD26C,1.300*%
%ADD27R,2.700X2.700*%
%ADD28R,2.600X1.000*%
%ADD29C,1.850*%
%ADD30C,1.350*%
%ADD31R,1.500X4.200*%
%ADD32C,2.550*%
%ADD33C,1.600*%
%LPD*%
X1211100Y1287700D02*
G54D10*
D03*
X1261100Y1287700D02*
G54D10*
D03*
X1236100Y1287700D02*
G54D10*
D03*
X1211100Y1432700D02*
G54D10*
D03*
X1261100Y1432700D02*
G54D10*
D03*
X1209600Y1326200D02*
G54D11*
D03*
X1209600Y1309200D02*
G54D11*
D03*
X1259600Y1326200D02*
G54D11*
D03*
X1259600Y1309200D02*
G54D11*
D03*
X1227600Y1359200D02*
G54D11*
D03*
X1227600Y1340200D02*
G54D12*
D03*
X1250600Y1359200D02*
G54D11*
D03*
X1250600Y1340200D02*
G54D12*
D03*
X1208500Y1240300D02*
G54D13*
D03*
X1259300Y1240300D02*
G54D13*
D03*
X1310100Y1240300D02*
G54D13*
D03*
X1157700Y1240300D02*
G54D13*
D03*
X1161100Y1362700D02*
G54D14*
D03*
X1191100Y1362700D02*
G54D14*
D03*
X1281100Y1362700D02*
G54D14*
D03*
X1311100Y1362700D02*
G54D14*
D03*
X67800Y913200D02*
G54D15*
D03*
X67800Y950900D02*
G54D15*
D03*
X67800Y1026300D02*
G54D16*
D03*
X1342700Y989000D02*
G54D16*
D03*
X1342700Y1026700D02*
G54D16*
D03*
X1393400Y1083500D02*
G54D17*
D03*
X1393400Y1070800D02*
G54D17*
D03*
X1393400Y1058100D02*
G54D17*
D03*
X1393400Y1045400D02*
G54D17*
D03*
X1447400Y1045400D02*
G54D17*
D03*
X1447400Y1058100D02*
G54D17*
D03*
X1447400Y1070800D02*
G54D17*
D03*
X1447400Y1083500D02*
G54D17*
D03*
X1473400Y1115500D02*
G54D18*
D03*
X1366400Y1114500D02*
G54D19*
D03*
X1467400Y1017500D02*
G54D20*
D03*
X1467400Y975500D02*
G54D20*
D03*
X1467400Y934500D02*
G54D20*
D03*
X1467400Y893500D02*
G54D20*
D03*
X1421503Y1114674D02*
G54D21*
D03*
X300200Y970500D02*
G54D22*
D03*
X325100Y970500D02*
G54D22*
D03*
X1135200Y970500D02*
G54D22*
D03*
X1160100Y970500D02*
G54D22*
D03*
X1135200Y970500D02*
G54D22*
D03*
X1160100Y970500D02*
G54D22*
D03*
X477700Y1091000D02*
G54D23*
D03*
X452300Y1091000D02*
G54D23*
D03*
X426900Y1091000D02*
G54D23*
D03*
X401500Y1091000D02*
G54D23*
D03*
X376100Y1091000D02*
G54D23*
D03*
X350700Y1091000D02*
G54D23*
D03*
X325300Y1091000D02*
G54D23*
D03*
X299900Y1091000D02*
G54D23*
D03*
X274500Y1091000D02*
G54D23*
D03*
X249100Y1091000D02*
G54D23*
D03*
X223700Y1091000D02*
G54D23*
D03*
X198300Y1091000D02*
G54D23*
D03*
X1009344Y970953D02*
G54D24*
D03*
X1009344Y995653D02*
G54D24*
D03*
X1066344Y971753D02*
G54D24*
D03*
X1066344Y996453D02*
G54D24*
D03*
X1272800Y952000D02*
G54D25*
D03*
X1255800Y952000D02*
G54D25*
D03*
X1319000Y928100D02*
G54D25*
D03*
X1302000Y928100D02*
G54D25*
D03*
X1066000Y927000D02*
G54D26*
D03*
X1066000Y955000D02*
G54D26*
D03*
X21000Y1070000D02*
G54D27*
D03*
X21000Y992000D02*
G54D27*
D03*
X21000Y943000D02*
G54D27*
D03*
X158000Y1090000D02*
G54D26*
D03*
X126000Y1011000D02*
G54D11*
D03*
X126000Y1028000D02*
G54D11*
D03*
X153000Y1011000D02*
G54D11*
D03*
X153000Y1028000D02*
G54D11*
D03*
X141000Y959000D02*
G54D26*
D03*
X170000Y991000D02*
G54D26*
D03*
X1142066Y1117801D02*
G54D28*
D03*
X1142066Y1105101D02*
G54D28*
D03*
X1142066Y1092401D02*
G54D28*
D03*
X1142067Y1079701D02*
G54D28*
D03*
X1192066Y1079701D02*
G54D28*
D03*
X1192066Y1092401D02*
G54D28*
D03*
X1192066Y1105101D02*
G54D28*
D03*
X1192066Y1117801D02*
G54D28*
D03*
X1222000Y1091000D02*
G54D11*
D03*
X1222000Y1108000D02*
G54D11*
D03*
X1245000Y1091000D02*
G54D11*
D03*
X1245000Y1108000D02*
G54D11*
D03*
X1092000Y1118000D02*
G54D11*
D03*
X1092000Y1101000D02*
G54D11*
D03*
X1115000Y1101000D02*
G54D11*
D03*
X1115000Y1118000D02*
G54D11*
D03*
X239000Y1058000D02*
G54D26*
D03*
X424200Y1058000D02*
G54D26*
D03*
X223700Y1091000D02*
G54D26*
D03*
X249100Y1091000D02*
G54D26*
D03*
X274500Y1091000D02*
G54D26*
D03*
X299900Y1091000D02*
G54D26*
D03*
X325300Y1091000D02*
G54D26*
D03*
X350700Y1091000D02*
G54D26*
D03*
X376100Y1091000D02*
G54D26*
D03*
X401500Y1091000D02*
G54D26*
D03*
X426900Y1091000D02*
G54D26*
D03*
X452300Y1091000D02*
G54D26*
D03*
X477700Y1091000D02*
G54D26*
D03*
X198300Y1091000D02*
G54D26*
D03*
X198400Y1118200D02*
G54D29*
D03*
X223800Y1118200D02*
G54D29*
D03*
X249200Y1118200D02*
G54D29*
D03*
X274600Y1118200D02*
G54D29*
D03*
X300000Y1118200D02*
G54D29*
D03*
X325400Y1118200D02*
G54D29*
D03*
X350800Y1118200D02*
G54D29*
D03*
X376200Y1118200D02*
G54D29*
D03*
X401600Y1118200D02*
G54D29*
D03*
X427000Y1118200D02*
G54D29*
D03*
X452400Y1118200D02*
G54D29*
D03*
X477800Y1118200D02*
G54D29*
D03*
X1379400Y1385500D02*
G54D30*
D03*
X1259300Y1240300D02*
G54D30*
D03*
X1208500Y1240300D02*
G54D30*
D03*
X820000Y1081000D02*
G54D30*
D03*
X820000Y1014000D02*
G54D30*
D03*
X1415000Y876000D02*
G54D30*
D03*
X68800Y607200D02*
G54D15*
D03*
X68800Y644900D02*
G54D15*
D03*
X68800Y720300D02*
G54D16*
D03*
X1343700Y683000D02*
G54D16*
D03*
X1343700Y720700D02*
G54D16*
D03*
X1394400Y777500D02*
G54D17*
D03*
X1394400Y764800D02*
G54D17*
D03*
X1394400Y752100D02*
G54D17*
D03*
X1394400Y739400D02*
G54D17*
D03*
X1448400Y739400D02*
G54D17*
D03*
X1448400Y752100D02*
G54D17*
D03*
X1448400Y764800D02*
G54D17*
D03*
X1448400Y777500D02*
G54D17*
D03*
X1474400Y809500D02*
G54D18*
D03*
X1367400Y808500D02*
G54D19*
D03*
X1468400Y711500D02*
G54D20*
D03*
X1468400Y669500D02*
G54D20*
D03*
X1468400Y628500D02*
G54D20*
D03*
X1468400Y587500D02*
G54D20*
D03*
X1422503Y808674D02*
G54D21*
D03*
X301200Y664500D02*
G54D22*
D03*
X326100Y664500D02*
G54D22*
D03*
X1136200Y664500D02*
G54D22*
D03*
X1161100Y664500D02*
G54D22*
D03*
X1136200Y664500D02*
G54D22*
D03*
X1161100Y664500D02*
G54D22*
D03*
X478700Y785000D02*
G54D23*
D03*
X453300Y785000D02*
G54D23*
D03*
X427900Y785000D02*
G54D23*
D03*
X402500Y785000D02*
G54D23*
D03*
X377100Y785000D02*
G54D23*
D03*
X351700Y785000D02*
G54D23*
D03*
X326300Y785000D02*
G54D23*
D03*
X300900Y785000D02*
G54D23*
D03*
X275500Y785000D02*
G54D23*
D03*
X250100Y785000D02*
G54D23*
D03*
X224700Y785000D02*
G54D23*
D03*
X199300Y785000D02*
G54D23*
D03*
X1010344Y664953D02*
G54D24*
D03*
X1010344Y689653D02*
G54D24*
D03*
X1067344Y665753D02*
G54D24*
D03*
X1067344Y690453D02*
G54D24*
D03*
X1273800Y646000D02*
G54D25*
D03*
X1256800Y646000D02*
G54D25*
D03*
X1320000Y622100D02*
G54D25*
D03*
X1303000Y622100D02*
G54D25*
D03*
X1067000Y621000D02*
G54D26*
D03*
X1067000Y649000D02*
G54D26*
D03*
X22000Y764000D02*
G54D27*
D03*
X22000Y686000D02*
G54D27*
D03*
X22000Y637000D02*
G54D27*
D03*
X159000Y784000D02*
G54D26*
D03*
X127000Y705000D02*
G54D11*
D03*
X127000Y722000D02*
G54D11*
D03*
X154000Y705000D02*
G54D11*
D03*
X154000Y722000D02*
G54D11*
D03*
X142000Y653000D02*
G54D26*
D03*
X171000Y685000D02*
G54D26*
D03*
X1143066Y811801D02*
G54D28*
D03*
X1143066Y799101D02*
G54D28*
D03*
X1143066Y786401D02*
G54D28*
D03*
X1143067Y773701D02*
G54D28*
D03*
X1193066Y773701D02*
G54D28*
D03*
X1193066Y786401D02*
G54D28*
D03*
X1193066Y799101D02*
G54D28*
D03*
X1193066Y811801D02*
G54D28*
D03*
X1223000Y785000D02*
G54D11*
D03*
X1223000Y802000D02*
G54D11*
D03*
X1246000Y785000D02*
G54D11*
D03*
X1246000Y802000D02*
G54D11*
D03*
X1093000Y812000D02*
G54D11*
D03*
X1093000Y795000D02*
G54D11*
D03*
X1114000Y794000D02*
G54D11*
D03*
X1114000Y811000D02*
G54D11*
D03*
X240000Y752000D02*
G54D26*
D03*
X425200Y752000D02*
G54D26*
D03*
X224700Y785000D02*
G54D26*
D03*
X250100Y785000D02*
G54D26*
D03*
X275500Y785000D02*
G54D26*
D03*
X300900Y785000D02*
G54D26*
D03*
X326300Y785000D02*
G54D26*
D03*
X351700Y785000D02*
G54D26*
D03*
X377100Y785000D02*
G54D26*
D03*
X402500Y785000D02*
G54D26*
D03*
X427900Y785000D02*
G54D26*
D03*
X453300Y785000D02*
G54D26*
D03*
X478700Y785000D02*
G54D26*
D03*
X199300Y785000D02*
G54D26*
D03*
X821000Y775000D02*
G54D30*
D03*
X821000Y708000D02*
G54D30*
D03*
X1416000Y570000D02*
G54D30*
D03*
X199400Y811200D02*
G54D29*
D03*
X224800Y811200D02*
G54D29*
D03*
X250200Y811200D02*
G54D29*
D03*
X275600Y811200D02*
G54D29*
D03*
X301000Y811200D02*
G54D29*
D03*
X326400Y811200D02*
G54D29*
D03*
X351800Y811200D02*
G54D29*
D03*
X377200Y811200D02*
G54D29*
D03*
X402600Y811200D02*
G54D29*
D03*
X428000Y811200D02*
G54D29*
D03*
X453400Y811200D02*
G54D29*
D03*
X478800Y811200D02*
G54D29*
D03*
X1379400Y1385500D02*
G54D20*
D03*
X1379400Y1343500D02*
G54D20*
D03*
X1379400Y1302500D02*
G54D20*
D03*
X1379400Y1261500D02*
G54D20*
D03*
X1379400Y1343500D02*
G54D30*
D03*
X1379400Y1302500D02*
G54D30*
D03*
X1379400Y1261500D02*
G54D30*
D03*
X820700Y1194000D02*
G54D26*
D03*
X846100Y1194000D02*
G54D26*
D03*
X871500Y1194000D02*
G54D26*
D03*
X896900Y1194000D02*
G54D26*
D03*
X922300Y1194000D02*
G54D26*
D03*
X947700Y1194000D02*
G54D26*
D03*
X973100Y1194000D02*
G54D26*
D03*
X998500Y1194000D02*
G54D26*
D03*
X1023900Y1194000D02*
G54D26*
D03*
X1049300Y1194000D02*
G54D26*
D03*
X1074700Y1194000D02*
G54D26*
D03*
X795300Y1194000D02*
G54D26*
D03*
X1074700Y1194000D02*
G54D23*
D03*
X1049300Y1194000D02*
G54D23*
D03*
X1023900Y1194000D02*
G54D23*
D03*
X998500Y1194000D02*
G54D23*
D03*
X973100Y1194000D02*
G54D23*
D03*
X947700Y1194000D02*
G54D23*
D03*
X922300Y1194000D02*
G54D23*
D03*
X896900Y1194000D02*
G54D23*
D03*
X871500Y1194000D02*
G54D23*
D03*
X846100Y1194000D02*
G54D23*
D03*
X820700Y1194000D02*
G54D23*
D03*
X795300Y1194000D02*
G54D23*
D03*
X1074700Y1342000D02*
G54D23*
D03*
X1049300Y1342000D02*
G54D23*
D03*
X1023900Y1342000D02*
G54D23*
D03*
X998500Y1342000D02*
G54D23*
D03*
X973100Y1342000D02*
G54D23*
D03*
X947700Y1342000D02*
G54D23*
D03*
X922300Y1342000D02*
G54D23*
D03*
X896900Y1342000D02*
G54D23*
D03*
X871500Y1342000D02*
G54D23*
D03*
X846100Y1342000D02*
G54D23*
D03*
X820700Y1342000D02*
G54D23*
D03*
X795300Y1342000D02*
G54D23*
D03*
X820700Y1342000D02*
G54D26*
D03*
X846100Y1342000D02*
G54D26*
D03*
X871500Y1342000D02*
G54D26*
D03*
X896900Y1342000D02*
G54D26*
D03*
X922300Y1342000D02*
G54D26*
D03*
X947700Y1342000D02*
G54D26*
D03*
X973100Y1342000D02*
G54D26*
D03*
X998500Y1342000D02*
G54D26*
D03*
X1023900Y1342000D02*
G54D26*
D03*
X1049300Y1342000D02*
G54D26*
D03*
X1074700Y1342000D02*
G54D26*
D03*
X795300Y1342000D02*
G54D26*
D03*
X795400Y1168200D02*
G54D29*
D03*
X820800Y1168200D02*
G54D29*
D03*
X846200Y1168200D02*
G54D29*
D03*
X871600Y1168200D02*
G54D29*
D03*
X897000Y1168200D02*
G54D29*
D03*
X922400Y1168200D02*
G54D29*
D03*
X947800Y1168200D02*
G54D29*
D03*
X973200Y1168200D02*
G54D29*
D03*
X998600Y1168200D02*
G54D29*
D03*
X1024000Y1168200D02*
G54D29*
D03*
X1049400Y1168200D02*
G54D29*
D03*
X1074800Y1168200D02*
G54D29*
D03*
X795400Y1367200D02*
G54D29*
D03*
X820800Y1367200D02*
G54D29*
D03*
X846200Y1367200D02*
G54D29*
D03*
X871600Y1367200D02*
G54D29*
D03*
X897000Y1367200D02*
G54D29*
D03*
X922400Y1367200D02*
G54D29*
D03*
X947800Y1367200D02*
G54D29*
D03*
X973200Y1367200D02*
G54D29*
D03*
X998600Y1367200D02*
G54D29*
D03*
X1024000Y1367200D02*
G54D29*
D03*
X1049400Y1367200D02*
G54D29*
D03*
X1074800Y1367200D02*
G54D29*
D03*
X331000Y1363000D02*
G54D31*
D03*
X421000Y1363000D02*
G54D31*
D03*
X346000Y1393000D02*
G54D31*
D03*
X376000Y1393000D02*
G54D31*
D03*
X406000Y1393000D02*
G54D31*
D03*
X406000Y1333000D02*
G54D31*
D03*
X376000Y1333000D02*
G54D31*
D03*
X346000Y1333000D02*
G54D31*
D03*
G36*
X58250Y1475750D02*
X83750Y1475750D01*
X83750Y1450250D01*
X58250Y1450250D01*
X58250Y1475750D01*
G37*
X96400Y1463000D02*
G54D32*
D03*
X121800Y1463000D02*
G54D32*
D03*
X147200Y1463000D02*
G54D32*
D03*
X172600Y1463000D02*
G54D32*
D03*
X198000Y1463000D02*
G54D32*
D03*
X223400Y1463000D02*
G54D32*
D03*
X248800Y1463000D02*
G54D32*
D03*
X274200Y1463000D02*
G54D32*
D03*
X299600Y1463000D02*
G54D32*
D03*
X325000Y1463000D02*
G54D32*
D03*
X350400Y1463000D02*
G54D32*
D03*
X375800Y1463000D02*
G54D32*
D03*
X401200Y1463000D02*
G54D32*
D03*
X426600Y1463000D02*
G54D32*
D03*
X452000Y1463000D02*
G54D32*
D03*
X172600Y1263000D02*
G54D32*
D03*
X198000Y1263000D02*
G54D32*
D03*
X223400Y1263000D02*
G54D32*
D03*
X248800Y1263000D02*
G54D32*
D03*
X274200Y1263000D02*
G54D32*
D03*
X299600Y1263000D02*
G54D32*
D03*
X325000Y1263000D02*
G54D32*
D03*
X350400Y1263000D02*
G54D32*
D03*
X375800Y1263000D02*
G54D32*
D03*
X401200Y1263000D02*
G54D32*
D03*
X426600Y1263000D02*
G54D32*
D03*
X452000Y1263000D02*
G54D32*
D03*
X514000Y1417000D02*
G54D33*
D03*
X549000Y1383000D02*
G54D33*
D03*
X705000Y1242000D02*
G54D30*
D03*
X659000Y1206000D02*
G54D30*
D03*
X428000Y1299000D02*
G54D30*
D03*
X444000Y1298000D02*
G54D30*
D03*
X710000Y1274000D02*
G54D30*
D03*
X710000Y1317000D02*
G54D30*
D03*
X697000Y1256000D02*
G54D30*
D03*
X689000Y1265000D02*
G54D30*
D03*
M02*
